                                                                        S      1
,,26HSpacer 1in - 4 Holes - 4mm,26HSpacer 1in - 4 Holes - 4mm,7Hunknown,G      1
7Hunknown,32,38,7,99,15,,1.,2,2HMM,1,0.08,15H20230522.221409,0.01,      G      2
10000.,7Hunknown,7Hunknown,11,0,;                                       G      3
     186       1                                                00000000D      1
     186            -135       1       0                               0D      2
     514       2                                                00010000D      3
     514                       1       1                               0D      4
     510       3                                                00010000D      5
     510            -135       1       1                               0D      6
     510       4                                                00010000D      7
     510            -135       1       1                               0D      8
     510       5                                                00010000D      9
     510            -135       1       1                               0D     10
     510       6                                                00010000D     11
     510            -135       1       1                               0D     12
     510       7                                                00010000D     13
     510            -135       1       1                               0D     14
     510       8                                                00010000D     15
     510            -135       1       1                               0D     16
     510       9                                                00010000D     17
     510            -135       1       1                               0D     18
     510      10                                                00010000D     19
     510            -135       1       1                               0D     20
     510      11                                                00010000D     21
     510            -135       1       1                               0D     22
     510      12                                                00010000D     23
     510            -135       1       1                               0D     24
     508      13                                                00010000D     25
     508                       1       1                               0D     26
     508      14                                                00010000D     27
     508                       1       1                               0D     28
     508      15                                                00010000D     29
     508                       1       1                               0D     30
     508      16                                                00010000D     31
     508                       1       1                               0D     32
     508      17                                                00010000D     33
     508                       1       1                               0D     34
     508      18                                                00010000D     35
     508                       1       1                               0D     36
     508      19                                                00010000D     37
     508                       1       1                               0D     38
     508      20                                                00010000D     39
     508                       1       1                               0D     40
     508      21                                                00010000D     41
     508                       1       1                               0D     42
     508      22                                                00010000D     43
     508                       1       1                               0D     44
     508      23                                                00010000D     45
     508                       1       1                               0D     46
     508      24                                                00010000D     47
     508                       1       1                               0D     48
     508      25                                                00010000D     49
     508                       1       1                               0D     50
     508      26                                                00010000D     51
     508                       1       1                               0D     52
     508      27                                                00010000D     53
     508                       1       1                               0D     54
     508      28                                                00010000D     55
     508                       1       1                               0D     56
     508      29                                                00010000D     57
     508                       1       1                               0D     58
     508      30                                                00010000D     59
     508                       1       1                               0D     60
     126      31                                                00010000D     61
     126       0               9       0                               0D     62
     126      40                                                00010000D     63
     126       0               2       0                               0D     64
     126      42                                                00010000D     65
     126       0               9       0                               0D     66
     126      51                                                00010000D     67
     126       0              12       0                               0D     68
     126      63                                                00010000D     69
     126       0               3       0                               0D     70
     126      66                                                00010000D     71
     126       0              12       0                               0D     72
     126      78                                                00010000D     73
     126       0              12       0                               0D     74
     126      90                                                00010000D     75
     126       0               3       0                               0D     76
     126      93                                                00010000D     77
     126       0              12       0                               0D     78
     126     105                                                00010000D     79
     126       0              12       0                               0D     80
     126     117                                                00010000D     81
     126       0               3       0                               0D     82
     126     120                                                00010000D     83
     126       0              12       0                               0D     84
     126     132                                                00010000D     85
     126       0               2       0                               0D     86
     126     134                                                00010000D     87
     126       0               2       0                               0D     88
     126     136                                                00010000D     89
     126       0               2       0                               0D     90
     126     138                                                00010000D     91
     126       0               2       0                               0D     92
     126     140                                                00010000D     93
     126       0               8       0                               0D     94
     126     148                                                00010000D     95
     126       0               8       0                               0D     96
     126     156                                                00010000D     97
     126       0               3       0                               0D     98
     126     159                                                00010000D     99
     126       0               3       0                               0D    100
     126     162                                                00010000D    101
     126       0               3       0                               0D    102
     126     165                                                00010000D    103
     126       0               3       0                               0D    104
     126     168                                                00010000D    105
     126       0               8       0                               0D    106
     126     176                                                00010000D    107
     126       0               8       0                               0D    108
     128     184                                                00010000D    109
     128       0    -135      14       0                               0D    110
     128     198                                                00010000D    111
     128       0    -135      20       0                               0D    112
     128     218                                                00010000D    113
     128       0    -135      20       0                               0D    114
     128     238                                                00010000D    115
     128       0    -135      20       0                               0D    116
     128     258                                                00010000D    117
     128       0    -135       4       0                               0D    118
     128     262                                                00010000D    119
     128       0    -135      13       0                               0D    120
     128     275                                                00010000D    121
     128       0    -135       5       0                               0D    122
     128     280                                                00010000D    123
     128       0    -135      12       0                               0D    124
     128     292                                                00010000D    125
     128       0    -135       7       0                               0D    126
     128     299                                                00010000D    127
     128       0    -135       7       0                               0D    128
     502     306                                                00010000D    129
     502                       9       1                               0D    130
     504     315                                                00010001D    131
     504                       7       1                               0D    132
     406     322                                                00000000D    133
     406                       1      15                               0D    134
     314     323                                                00000200D    135
     314                       2       0                               0D    136
186,3,1,0,0,1,133;                                                     1P      1
514,10,5,1,7,1,9,1,11,1,13,1,15,1,17,1,19,1,21,1,23,1;                 3P      2
510,109,1,1,25;                                                        5P      3
510,111,1,1,27;                                                        7P      4
510,113,1,1,29;                                                        9P      5
510,115,1,1,31;                                                       11P      6
510,117,1,1,33;                                                       13P      7
510,119,1,1,35;                                                       15P      8
510,121,1,1,37;                                                       17P      9
510,123,1,1,39;                                                       19P     10
510,125,5,1,41,43,45,47,49;                                           21P     11
510,127,5,1,51,53,55,57,59;                                           23P     12
508,4,0,131,1,0,0,0,131,2,1,0,0,131,3,0,0,0,131,2,0,0;                25P     13
508,4,0,131,4,0,0,0,131,5,1,0,0,131,6,0,0,0,131,5,0,0;                27P     14
508,4,0,131,7,0,0,0,131,8,1,0,0,131,9,0,0,0,131,8,0,0;                29P     15
508,4,0,131,10,0,0,0,131,11,1,0,0,131,12,0,0,0,131,11,0,0;            31P     16
508,4,0,131,13,0,0,0,131,14,1,0,0,131,15,0,0,0,131,16,0,0;            33P     17
508,4,0,131,17,1,0,0,131,16,1,0,0,131,18,0,0,0,131,19,0,0;            35P     18
508,4,0,131,20,1,0,0,131,19,1,0,0,131,21,0,0,0,131,22,0,0;            37P     19
508,4,0,131,23,0,0,0,131,22,1,0,0,131,24,0,0,0,131,14,0,0;            39P     20
508,4,0,131,24,1,0,0,131,21,1,0,0,131,18,1,0,0,131,15,1,0;            41P     21
508,1,0,131,10,1,0;                                                   43P     22
508,1,0,131,7,1,0;                                                    45P     23
508,1,0,131,4,1,0;                                                    47P     24
508,1,0,131,1,1,0;                                                    49P     25
508,4,0,131,23,1,0,0,131,13,1,0,0,131,17,0,0,0,131,20,0,0;            51P     26
508,1,0,131,12,1,0;                                                   53P     27
508,1,0,131,9,1,0;                                                    55P     28
508,1,0,131,6,1,0;                                                    57P     29
508,1,0,131,3,1,0;                                                    59P     30
126,8,2,0,1,0,0,-3.14159265358979,-3.14159265358979,                  61P     31
-3.14159265358979,-1.5707963267949,-1.5707963267949,0.,0.,            61P     32
1.5707963267949,1.5707963267949,3.14159265358979,                     61P     33
3.14159265358979,3.14159265358979,1.,0.707106781186549,1.,            61P     34
0.707106781186549,1.,0.707106781186546,1.,0.707106781186546,1.,       61P     35
-3.96875,38.1,4.,-3.96875,42.06875,4.,2.43015849205803D-16,           61P     36
42.06875,4.,3.96875,42.06875,4.,3.96875,38.1,4.,3.96875,              61P     37
34.13125,4.,2.43015849205803D-16,34.13125,4.,-3.96875,34.13125,       61P     38
4.,-3.96875,38.1,4.,-3.14159265358979,3.14159265358979,0.,0.,0.;      61P     39
126,1,1,0,0,1,0,-1.00787401574803,-1.00787401574803,0.,0.,1.,1.,      63P     40
-3.96875,38.1,4.,-3.96875,38.1,0.,-1.00787401574803,0.,0.,0.,0.;      63P     41
126,8,2,0,1,0,0,-3.14159265358979,-3.14159265358979,                  65P     42
-3.14159265358979,-1.5707963267949,-1.5707963267949,0.,0.,            65P     43
1.5707963267949,1.5707963267949,3.14159265358979,                     65P     44
3.14159265358979,3.14159265358979,1.,0.707106781186546,1.,            65P     45
0.707106781186546,1.,0.707106781186549,1.,0.707106781186549,1.,       65P     46
-3.96875,38.1,0.,-3.96875,34.13125,0.,2.43015849205803D-16,           65P     47
34.13125,0.,3.96875,34.13125,0.,3.96875,38.1,0.,3.96875,              65P     48
42.06875,0.,2.43015849205803D-16,42.06875,0.,-3.96875,42.06875,       65P     49
0.,-3.96875,38.1,0.,-3.14159265358979,3.14159265358979,0.,0.,0.;      65P     50
126,8,2,0,1,0,0,-3.14159265358979,-3.14159265358979,                  67P     51
-3.14159265358979,-1.5707963267949,-1.5707963267949,0.,0.,            67P     52
1.5707963267949,1.5707963267949,3.14159265358979,                     67P     53
3.14159265358979,3.14159265358979,1.,0.70710678118655,1.,             67P     54
0.70710678118655,1.,0.70710678118655,1.,0.70710678118655,1.,          67P     55
-28.4589579290571,29.1862932828331,4.,-28.4589579290571,              67P     56
33.1550432828331,4.,-24.4902079290571,33.1550432828331,4.,            67P     57
-20.5214579290571,33.1550432828331,4.,-20.5214579290571,              67P     58
29.1862932828331,4.,-20.5214579290571,25.2175432828331,4.,            67P     59
-24.4902079290571,25.2175432828331,4.,-28.4589579290571,              67P     60
25.2175432828331,4.,-28.4589579290571,29.1862932828331,4.,            67P     61
-3.14159265358979,3.14159265358979,0.,0.,0.;                          67P     62
126,1,1,0,0,1,0,-1.00787401574803,-1.00787401574803,0.,0.,1.,1.,      69P     63
-28.4589579290571,29.1862932828331,4.,-28.4589579290571,              69P     64
29.1862932828331,0.,-1.00787401574803,0.,0.,0.,0.;                    69P     65
126,8,2,0,1,0,0,-3.14159265358979,-3.14159265358979,                  71P     66
-3.14159265358979,-1.5707963267949,-1.5707963267949,0.,0.,            71P     67
1.5707963267949,1.5707963267949,3.14159265358979,                     71P     68
3.14159265358979,3.14159265358979,1.,0.70710678118655,1.,             71P     69
0.70710678118655,1.,0.70710678118655,1.,0.70710678118655,1.,          71P     70
-28.4589579290571,29.1862932828331,0.,-28.4589579290571,              71P     71
25.2175432828331,0.,-24.4902079290571,25.2175432828331,0.,            71P     72
-20.5214579290571,25.2175432828331,0.,-20.5214579290571,              71P     73
29.1862932828331,0.,-20.5214579290571,33.1550432828331,0.,            71P     74
-24.4902079290571,33.1550432828331,0.,-28.4589579290571,              71P     75
33.1550432828331,0.,-28.4589579290571,29.1862932828331,0.,            71P     76
-3.14159265358979,3.14159265358979,0.,0.,0.;                          71P     77
126,8,2,0,1,0,0,-3.14159265358979,-3.14159265358979,                  73P     78
-3.14159265358979,-1.5707963267949,-1.5707963267949,0.,0.,            73P     79
1.5707963267949,1.5707963267949,3.14159265358979,                     73P     80
3.14159265358979,3.14159265358979,1.,0.70710678118655,1.,             73P     81
0.70710678118655,1.,0.70710678118655,1.,0.70710678118655,1.,          73P     82
20.5214579290572,29.1862932828331,4.,20.5214579290572,                73P     83
33.1550432828331,4.,24.4902079290572,33.1550432828331,4.,             73P     84
28.4589579290572,33.1550432828331,4.,28.4589579290572,                73P     85
29.1862932828331,4.,28.4589579290572,25.2175432828331,4.,             73P     86
24.4902079290572,25.2175432828331,4.,20.5214579290572,                73P     87
25.2175432828331,4.,20.5214579290572,29.1862932828331,4.,             73P     88
-3.14159265358979,3.14159265358979,0.,0.,0.;                          73P     89
126,1,1,0,0,1,0,-1.00787401574803,-1.00787401574803,0.,0.,1.,1.,      75P     90
20.5214579290572,29.1862932828331,4.,20.5214579290572,                75P     91
29.1862932828331,0.,-1.00787401574803,0.,0.,0.,0.;                    75P     92
126,8,2,0,1,0,0,-3.14159265358979,-3.14159265358979,                  77P     93
-3.14159265358979,-1.5707963267949,-1.5707963267949,0.,0.,            77P     94
1.5707963267949,1.5707963267949,3.14159265358979,                     77P     95
3.14159265358979,3.14159265358979,1.,0.70710678118655,1.,             77P     96
0.70710678118655,1.,0.70710678118655,1.,0.70710678118655,1.,          77P     97
20.5214579290572,29.1862932828331,0.,20.5214579290572,                77P     98
25.2175432828331,0.,24.4902079290572,25.2175432828331,0.,             77P     99
28.4589579290572,25.2175432828331,0.,28.4589579290572,                77P    100
29.1862932828331,0.,28.4589579290572,33.1550432828331,0.,             77P    101
24.4902079290572,33.1550432828331,0.,20.5214579290572,                77P    102
33.1550432828331,0.,20.5214579290572,29.1862932828331,0.,             77P    103
-3.14159265358979,3.14159265358979,0.,0.,0.;                          77P    104
126,8,2,0,1,0,0,-3.14159265358979,-3.14159265358979,                  79P    105
-3.14159265358979,-1.5707963267949,-1.5707963267949,0.,0.,            79P    106
1.5707963267949,1.5707963267949,3.14159265358979,                     79P    107
3.14159265358979,3.14159265358979,1.,0.707106781186549,1.,            79P    108
0.707106781186549,1.,0.707106781186549,1.,0.707106781186549,1.,       79P    109
33.5524253897651,6.61599556911003,4.,33.5524253897651,                79P    110
10.58474556911,4.,37.5211753897651,10.58474556911,4.,                 79P    111
41.4899253897651,10.58474556911,4.,41.4899253897651,                  79P    112
6.61599556911003,4.,41.4899253897651,2.64724556911003,4.,             79P    113
37.5211753897651,2.64724556911003,4.,33.5524253897651,                79P    114
2.64724556911003,4.,33.5524253897651,6.61599556911003,4.,             79P    115
-3.14159265358979,3.14159265358979,0.,0.,0.;                          79P    116
126,1,1,0,0,1,0,-1.00787401574803,-1.00787401574803,0.,0.,1.,1.,      81P    117
33.5524253897651,6.61599556911003,4.,33.5524253897651,                81P    118
6.61599556911003,0.,-1.00787401574803,0.,0.,0.,0.;                    81P    119
126,8,2,0,1,0,0,-3.14159265358979,-3.14159265358979,                  83P    120
-3.14159265358979,-1.5707963267949,-1.5707963267949,0.,0.,            83P    121
1.5707963267949,1.5707963267949,3.14159265358979,                     83P    122
3.14159265358979,3.14159265358979,1.,0.707106781186549,1.,            83P    123
0.707106781186549,1.,0.707106781186549,1.,0.707106781186549,1.,       83P    124
33.5524253897651,6.61599556911003,0.,33.5524253897651,                83P    125
2.64724556911003,0.,37.5211753897651,2.64724556911003,0.,             83P    126
41.4899253897651,2.64724556911003,0.,41.4899253897651,                83P    127
6.61599556911003,0.,41.4899253897651,10.58474556911,0.,               83P    128
37.5211753897651,10.58474556911,0.,33.5524253897651,                  83P    129
10.58474556911,0.,33.5524253897651,6.61599556911003,0.,               83P    130
-3.14159265358979,3.14159265358979,0.,0.,0.;                          83P    131
126,1,1,0,0,1,0,0.,0.,2.54,2.54,1.,1.,-21.9970452561247,12.7,0.,      85P    132
-43.9940905122495,25.4,0.,0.,2.54,0.,0.,0.;                           85P    133
126,1,1,0,0,1,0,0.,0.,0.4,0.4,1.,1.,-21.9970452561247,12.7,0.,        87P    134
-21.9970452561247,12.7,4.,0.,0.4,0.,0.,0.;                            87P    135
126,1,1,0,0,1,0,-2.54,-2.54,0.,0.,1.,1.,-43.9940905122495,25.4,       89P    136
4.,-21.9970452561247,12.7,4.,-2.54,0.,0.,0.,0.;                       89P    137
126,1,1,0,0,1,0,0.,0.,0.4,0.4,1.,1.,-43.9940905122495,25.4,0.,        91P    138
-43.9940905122495,25.4,4.,0.,0.4,0.,0.,0.;                            91P    139
126,4,2,0,0,0,0,-0.174532925199433,-0.174532925199433,                93P    140
-0.174532925199433,1.22173047639603,1.22173047639603,                 93P    141
2.61799387799149,2.61799387799149,2.61799387799149,1.,                93P    142
0.766044443118978,1.,0.766044443118978,1.,50.0282338530202,           93P    143
-8.82132742548009,0.,57.4302064422345,33.1573451490399,0.,            93P    144
17.374623280944,47.7363851359241,0.,-22.6809598803466,                93P    145
62.3154251228084,0.,-43.9940905122495,25.4,0.,                        93P    146
-0.174532925199433,2.61799387799149,0.,0.,0.;                         93P    147
126,4,2,0,0,0,0,-0.174532925199433,-0.174532925199433,                95P    148
-0.174532925199433,1.22173047639603,1.22173047639603,                 95P    149
2.61799387799149,2.61799387799149,2.61799387799149,1.,                95P    150
0.766044443118978,1.,0.766044443118978,1.,50.0282338530202,           95P    151
-8.82132742548009,4.,57.4302064422345,33.1573451490399,4.,            95P    152
17.374623280944,47.7363851359241,4.,-22.6809598803466,                95P    153
62.3154251228084,4.,-43.9940905122495,25.4,4.,                        95P    154
-0.174532925199433,2.61799387799149,0.,0.,0.;                         95P    155
126,1,1,0,0,1,0,0.,0.,0.4,0.4,1.,1.,50.0282338530202,                 97P    156
-8.82132742548009,0.,50.0282338530202,-8.82132742548009,4.,0.,        97P    157
0.4,0.,0.,0.;                                                         97P    158
126,1,1,0,0,1,0,0.,0.,2.54,2.54,1.,1.,25.0141169265101,               99P    159
-4.41066371274004,0.,50.0282338530202,-8.82132742548009,0.,0.,        99P    160
2.54,0.,0.,0.;                                                        99P    161
126,1,1,0,0,1,0,0.,0.,2.54,2.54,1.,1.,25.0141169265101,              101P    162
-4.41066371274004,4.,50.0282338530202,-8.82132742548009,4.,0.,       101P    163
2.54,0.,0.,0.;                                                       101P    164
126,1,1,0,0,1,0,0.,0.,0.4,0.4,1.,1.,25.0141169265101,                103P    165
-4.41066371274004,0.,25.0141169265101,-4.41066371274004,4.,0.,       103P    166
0.4,0.,0.,0.;                                                        103P    167
126,4,2,0,0,0,0,-0.174532925199433,-0.174532925199433,               105P    168
-0.174532925199433,1.22173047639603,1.22173047639603,                105P    169
2.61799387799149,2.61799387799149,2.61799387799149,1.,               105P    170
0.766044443118978,1.,0.766044443118978,1.,25.0141169265101,          105P    171
-4.41066371274004,0.,28.7151032211173,16.5786725745199,0.,           105P    172
8.68731164047198,23.8681925679621,0.,-11.3404799401733,              105P    173
31.1577125614042,0.,-21.9970452561248,12.7,0.,                       105P    174
-0.174532925199433,2.61799387799149,0.,0.,0.;                        105P    175
126,4,2,0,0,0,0,-2.61799387799149,-2.61799387799149,                 107P    176
-2.61799387799149,-1.22173047639603,-1.22173047639603,               107P    177
0.174532925199433,0.174532925199433,0.174532925199433,1.,            107P    178
0.766044443118978,1.,0.766044443118978,1.,-21.9970452561248,         107P    179
12.7,4.,-11.3404799401733,31.1577125614042,4.,8.68731164047198,      107P    180
23.8681925679621,4.,28.7151032211173,16.5786725745199,4.,            107P    181
25.0141169265101,-4.41066371274004,4.,-2.61799387799149,             107P    182
0.174532925199433,0.,0.,0.;                                          107P    183
128,1,8,1,2,0,1,0,0,1,0.,0.,1.00787401574803,1.00787401574803,       109P    184
-3.14159265358979,-3.14159265358979,-3.14159265358979,               109P    185
-1.5707963267949,-1.5707963267949,0.,0.,1.5707963267949,             109P    186
1.5707963267949,3.14159265358979,3.14159265358979,                   109P    187
3.14159265358979,1.,1.,0.707106781186548,0.707106781186548,1.,       109P    188
1.,0.707106781186548,0.707106781186548,1.,1.,0.707106781186548,      109P    189
0.707106781186548,1.,1.,0.707106781186548,0.707106781186548,1.,      109P    190
1.,-3.96875,38.1,0.,-3.96875,38.1,4.,-3.96875,34.13125,0.,           109P    191
-3.96875,34.13125,4.,0.,34.13125,0.,0.,34.13125,4.,3.96875,          109P    192
34.13125,0.,3.96875,34.13125,4.,3.96875,38.1,0.,3.96875,38.1,4.,     109P    193
3.96875,42.06875,0.,3.96875,42.06875,4.,0.,42.06875,0.,0.,           109P    194
42.06875,4.,-3.96875,42.06875,0.,-3.96875,42.06875,4.,-3.96875,      109P    195
38.1,0.,-3.96875,38.1,4.,0.,1.00787401574803,-3.14159265358979,      109P    196
3.14159265358979;                                                    109P    197
128,1,8,1,2,0,1,0,0,1,0.,0.,1.00787401574803,1.00787401574803,       111P    198
-3.14159265358979,-3.14159265358979,-3.14159265358979,               111P    199
-1.5707963267949,-1.5707963267949,0.,0.,1.5707963267949,             111P    200
1.5707963267949,3.14159265358979,3.14159265358979,                   111P    201
3.14159265358979,1.,1.,0.707106781186548,0.707106781186548,1.,       111P    202
1.,0.707106781186548,0.707106781186548,1.,1.,0.707106781186548,      111P    203
0.707106781186548,1.,1.,0.707106781186548,0.707106781186548,1.,      111P    204
1.,-28.4589579290571,29.1862932828331,0.,-28.4589579290571,          111P    205
29.1862932828331,4.,-28.4589579290571,25.2175432828331,0.,           111P    206
-28.4589579290571,25.2175432828331,4.,-24.4902079290571,             111P    207
25.2175432828331,0.,-24.4902079290571,25.2175432828331,4.,           111P    208
-20.5214579290571,25.2175432828331,0.,-20.5214579290571,             111P    209
25.2175432828331,4.,-20.5214579290571,29.1862932828331,0.,           111P    210
-20.5214579290571,29.1862932828331,4.,-20.5214579290571,             111P    211
33.1550432828331,0.,-20.5214579290571,33.1550432828331,4.,           111P    212
-24.4902079290571,33.1550432828331,0.,-24.4902079290571,             111P    213
33.1550432828331,4.,-28.4589579290571,33.1550432828331,0.,           111P    214
-28.4589579290571,33.1550432828331,4.,-28.4589579290571,             111P    215
29.1862932828331,0.,-28.4589579290571,29.1862932828331,4.,0.,        111P    216
1.00787401574803,-3.14159265358979,3.14159265358979;                 111P    217
128,1,8,1,2,0,1,0,0,1,0.,0.,1.00787401574803,1.00787401574803,       113P    218
-3.14159265358979,-3.14159265358979,-3.14159265358979,               113P    219
-1.5707963267949,-1.5707963267949,0.,0.,1.5707963267949,             113P    220
1.5707963267949,3.14159265358979,3.14159265358979,                   113P    221
3.14159265358979,1.,1.,0.707106781186548,0.707106781186548,1.,       113P    222
1.,0.707106781186548,0.707106781186548,1.,1.,0.707106781186548,      113P    223
0.707106781186548,1.,1.,0.707106781186548,0.707106781186548,1.,      113P    224
1.,20.5214579290572,29.1862932828331,0.,20.5214579290572,            113P    225
29.1862932828331,4.,20.5214579290572,25.2175432828331,0.,            113P    226
20.5214579290572,25.2175432828331,4.,24.4902079290572,               113P    227
25.2175432828331,0.,24.4902079290572,25.2175432828331,4.,            113P    228
28.4589579290572,25.2175432828331,0.,28.4589579290572,               113P    229
25.2175432828331,4.,28.4589579290572,29.1862932828331,0.,            113P    230
28.4589579290572,29.1862932828331,4.,28.4589579290572,               113P    231
33.1550432828331,0.,28.4589579290572,33.1550432828331,4.,            113P    232
24.4902079290572,33.1550432828331,0.,24.4902079290572,               113P    233
33.1550432828331,4.,20.5214579290572,33.1550432828331,0.,            113P    234
20.5214579290572,33.1550432828331,4.,20.5214579290572,               113P    235
29.1862932828331,0.,20.5214579290572,29.1862932828331,4.,0.,         113P    236
1.00787401574803,-3.14159265358979,3.14159265358979;                 113P    237
128,1,8,1,2,0,1,0,0,1,0.,0.,1.00787401574803,1.00787401574803,       115P    238
-3.14159265358979,-3.14159265358979,-3.14159265358979,               115P    239
-1.5707963267949,-1.5707963267949,0.,0.,1.5707963267949,             115P    240
1.5707963267949,3.14159265358979,3.14159265358979,                   115P    241
3.14159265358979,1.,1.,0.707106781186548,0.707106781186548,1.,       115P    242
1.,0.707106781186548,0.707106781186548,1.,1.,0.707106781186548,      115P    243
0.707106781186548,1.,1.,0.707106781186548,0.707106781186548,1.,      115P    244
1.,33.5524253897651,6.61599556911003,0.,33.5524253897651,            115P    245
6.61599556911003,4.,33.5524253897651,2.64724556911003,0.,            115P    246
33.5524253897651,2.64724556911003,4.,37.5211753897651,               115P    247
2.64724556911003,0.,37.5211753897651,2.64724556911003,4.,            115P    248
41.4899253897651,2.64724556911003,0.,41.4899253897651,               115P    249
2.64724556911003,4.,41.4899253897651,6.61599556911003,0.,            115P    250
41.4899253897651,6.61599556911003,4.,41.4899253897651,               115P    251
10.58474556911,0.,41.4899253897651,10.58474556911,4.,                115P    252
37.5211753897651,10.58474556911,0.,37.5211753897651,                 115P    253
10.58474556911,4.,33.5524253897651,10.58474556911,0.,                115P    254
33.5524253897651,10.58474556911,4.,33.5524253897651,                 115P    255
6.61599556911003,0.,33.5524253897651,6.61599556911003,4.,0.,         115P    256
1.00787401574803,-3.14159265358979,3.14159265358979;                 115P    257
128,1,1,1,1,0,0,1,0,0,-0.001,-0.001,2.541,2.541,-0.001,-0.001,       117P    258
0.401,0.401,1.,1.,1.,1.,-44.0027507662873,25.405,-0.01,              117P    259
-21.9883850020869,12.695,-0.01,-44.0027507662873,25.405,4.01,        117P    260
-21.9883850020869,12.695,4.01,-0.001,2.541,-0.001,0.401;             117P    261
128,1,4,1,2,0,0,0,0,0,0.,0.,0.078740157480315,0.078740157480315,     119P    262
-0.174532925199434,-0.174532925199434,-0.174532925199434,            119P    263
1.22173047639603,1.22173047639603,2.61799387799149,                  119P    264
2.61799387799149,2.61799387799149,1.,1.,0.766044443118978,           119P    265
0.766044443118978,1.,1.,0.766044443118978,0.766044443118978,1.,      119P    266
1.,50.0282338530202,-8.82132742548009,4.,50.0282338530202,           119P    267
-8.82132742548009,0.,57.4302064422345,33.1573451490399,4.,           119P    268
57.4302064422345,33.1573451490399,0.,17.374623280944,                119P    269
47.7363851359242,4.,17.374623280944,47.7363851359242,0.,             119P    270
-22.6809598803466,62.3154251228084,4.,-22.6809598803466,             119P    271
62.3154251228084,0.,-43.9940905122495,25.4,4.,-43.9940905122495,     119P    272
25.4,0.,0.,0.078740157480315,-0.174532925199434,                     119P    273
2.61799387799149;                                                    119P    274
128,1,1,1,1,0,0,1,0,0,-0.001,-0.001,2.541,2.541,-0.001,-0.001,       121P    275
0.401,0.401,1.,1.,1.,1.,25.00426884898,-4.40892723096337,-0.01,      121P    276
50.0380819305503,-8.82306390725676,-0.01,25.00426884898,             121P    277
-4.40892723096337,4.01,50.0380819305503,-8.82306390725676,4.01,      121P    278
-0.001,2.541,-0.001,0.401;                                           121P    279
128,1,4,1,2,0,0,0,0,0,0.,0.,0.15748031496063,0.15748031496063,       123P    280
-0.174532925199433,-0.174532925199433,-0.174532925199433,            123P    281
1.22173047639603,1.22173047639603,2.61799387799149,                  123P    282
2.61799387799149,2.61799387799149,1.,1.,0.766044443118978,           123P    283
0.766044443118978,1.,1.,0.766044443118978,0.766044443118978,1.,      123P    284
1.,25.0141169265101,-4.41066371274004,0.,25.0141169265101,           123P    285
-4.41066371274004,4.,28.7151032211173,16.5786725745199,0.,           123P    286
28.7151032211173,16.5786725745199,4.,8.68731164047198,               123P    287
23.8681925679621,0.,8.68731164047198,23.8681925679621,4.,            123P    288
-11.3404799401733,31.1577125614042,0.,-11.3404799401733,             123P    289
31.1577125614042,4.,-21.9970452561248,12.7,0.,-21.9970452561248,     123P    290
12.7,4.,0.,0.15748031496063,-0.174532925199433,2.61799387799149;     123P    291
128,1,1,1,1,0,0,1,0,0,-4.40040905122495,-4.40040905122495,           125P    292
5.74402064422345,5.74402064422345,-0.883132742548009,                125P    293
-0.883132742548009,6.23254251228084,6.23254251228084,1.,1.,1.,       125P    294
1.,-44.0040905122495,-8.83132742548009,4.,57.4402064422345,          125P    295
-8.83132742548009,4.,-44.0040905122495,62.3254251228084,4.,          125P    296
57.4402064422345,62.3254251228084,4.,-4.40040905122495,              125P    297
5.74402064422345,-0.883132742548009,6.23254251228084;                125P    298
128,1,1,1,1,0,0,1,0,0,-4.40040905122495,-4.40040905122495,           127P    299
5.74402064422345,5.74402064422345,-0.883132742548009,                127P    300
-0.883132742548009,6.23254251228084,6.23254251228084,1.,1.,1.,       127P    301
1.,57.4402064422345,-8.83132742548009,0.,-44.0040905122495,          127P    302
-8.83132742548009,0.,57.4402064422345,62.3254251228084,0.,           127P    303
-44.0040905122495,62.3254251228084,0.,-4.40040905122495,             127P    304
5.74402064422345,-0.883132742548009,6.23254251228084;                127P    305
502,16,-3.96875,38.1,4.,-3.96875,38.1,0.,-28.4589579290571,          129P    306
29.1862932828331,4.,-28.4589579290571,29.1862932828331,0.,           129P    307
20.5214579290572,29.1862932828331,4.,20.5214579290572,               129P    308
29.1862932828331,0.,33.5524253897651,6.61599556911003,4.,            129P    309
33.5524253897651,6.61599556911003,0.,-21.9970452561247,12.7,0.,      129P    310
-43.9940905122495,25.4,0.,-21.9970452561247,12.7,4.,                 129P    311
-43.9940905122495,25.4,4.,50.0282338530202,-8.82132742548009,0.,     129P    312
50.0282338530202,-8.82132742548009,4.,25.0141169265101,              129P    313
-4.41066371274004,0.,25.0141169265101,-4.41066371274004,4.;          129P    314
504,24,61,129,1,129,1,63,129,1,129,2,65,129,2,129,2,67,129,3,        131P    315
129,3,69,129,3,129,4,71,129,4,129,4,73,129,5,129,5,75,129,5,129,     131P    316
6,77,129,6,129,6,79,129,7,129,7,81,129,7,129,8,83,129,8,129,8,       131P    317
85,129,9,129,10,87,129,9,129,11,89,129,12,129,11,91,129,10,129,      131P    318
12,93,129,13,129,10,95,129,14,129,12,97,129,13,129,14,99,129,15,     131P    319
129,13,101,129,16,129,14,103,129,15,129,16,105,129,15,129,9,107,     131P    320
129,11,129,16;                                                       131P    321
406,1,26HSpacer 1in - 4 Holes - 4mm;                                 133P    322
314,62.7450980392157,62.7450980392157,62.7450980392157,13HSteel      135P    323
- Satin;                                                             135P    324
S      1G      3D    136P    324                                        T      1
