                                                                        S      1
,,29HSpacer 0.75in - 5 Holes - 1mm,29HSpacer 0.75in - 5 Holes - 1mm,7HunG      1
known,7Hunknown,32,38,7,99,15,,1.,2,2HMM,1,0.08,15H20230522.221512,0.01,G      2
10000.,7Hunknown,7Hunknown,11,0,;                                       G      3
     186       1                                                00000000D      1
     186            -151       1       0                               0D      2
     514       2                                                00010000D      3
     514                       1       1                               0D      4
     510       3                                                00010000D      5
     510            -151       1       1                               0D      6
     510       4                                                00010000D      7
     510            -151       1       1                               0D      8
     510       5                                                00010000D      9
     510            -151       1       1                               0D     10
     510       6                                                00010000D     11
     510            -151       1       1                               0D     12
     510       7                                                00010000D     13
     510            -151       1       1                               0D     14
     510       8                                                00010000D     15
     510            -151       1       1                               0D     16
     510       9                                                00010000D     17
     510            -151       1       1                               0D     18
     510      10                                                00010000D     19
     510            -151       1       1                               0D     20
     510      11                                                00010000D     21
     510            -151       1       1                               0D     22
     510      12                                                00010000D     23
     510            -151       1       1                               0D     24
     510      13                                                00010000D     25
     510            -151       1       1                               0D     26
     508      14                                                00010000D     27
     508                       1       1                               0D     28
     508      15                                                00010000D     29
     508                       1       1                               0D     30
     508      16                                                00010000D     31
     508                       1       1                               0D     32
     508      17                                                00010000D     33
     508                       1       1                               0D     34
     508      18                                                00010000D     35
     508                       1       1                               0D     36
     508      19                                                00010000D     37
     508                       1       1                               0D     38
     508      20                                                00010000D     39
     508                       1       1                               0D     40
     508      21                                                00010000D     41
     508                       1       1                               0D     42
     508      22                                                00010000D     43
     508                       1       1                               0D     44
     508      23                                                00010000D     45
     508                       1       1                               0D     46
     508      24                                                00010000D     47
     508                       1       1                               0D     48
     508      25                                                00010000D     49
     508                       1       1                               0D     50
     508      26                                                00010000D     51
     508                       1       1                               0D     52
     508      27                                                00010000D     53
     508                       1       1                               0D     54
     508      28                                                00010000D     55
     508                       1       1                               0D     56
     508      29                                                00010000D     57
     508                       1       1                               0D     58
     508      30                                                00010000D     59
     508                       1       1                               0D     60
     508      31                                                00010000D     61
     508                       1       1                               0D     62
     508      32                                                00010000D     63
     508                       1       1                               0D     64
     508      33                                                00010000D     65
     508                       1       1                               0D     66
     508      34                                                00010000D     67
     508                       1       1                               0D     68
     126      35                                                00010000D     69
     126       0              11       0                               0D     70
     126      46                                                00010000D     71
     126       0               3       0                               0D     72
     126      49                                                00010000D     73
     126       0              11       0                               0D     74
     126      60                                                00010000D     75
     126       0              11       0                               0D     76
     126      71                                                00010000D     77
     126       0               3       0                               0D     78
     126      74                                                00010000D     79
     126       0              11       0                               0D     80
     126      85                                                00010000D     81
     126       0              12       0                               0D     82
     126      97                                                00010000D     83
     126       0               3       0                               0D     84
     126     100                                                00010000D     85
     126       0              12       0                               0D     86
     126     112                                                00010000D     87
     126       0              12       0                               0D     88
     126     124                                                00010000D     89
     126       0               3       0                               0D     90
     126     127                                                00010000D     91
     126       0              12       0                               0D     92
     126     139                                                00010000D     93
     126       0              12       0                               0D     94
     126     151                                                00010000D     95
     126       0               3       0                               0D     96
     126     154                                                00010000D     97
     126       0              12       0                               0D     98
     126     166                                                00010000D     99
     126       0               3       0                               0D    100
     126     169                                                00010000D    101
     126       0               3       0                               0D    102
     126     172                                                00010000D    103
     126       0               3       0                               0D    104
     126     175                                                00010000D    105
     126       0               3       0                               0D    106
     126     178                                                00010000D    107
     126       0              10       0                               0D    108
     126     188                                                00010000D    109
     126       0              10       0                               0D    110
     126     198                                                00010000D    111
     126       0               2       0                               0D    112
     126     200                                                00010000D    113
     126       0               2       0                               0D    114
     126     202                                                00010000D    115
     126       0               2       0                               0D    116
     126     204                                                00010000D    117
     126       0               2       0                               0D    118
     126     206                                                00010000D    119
     126       0              10       0                               0D    120
     126     216                                                00010000D    121
     126       0              10       0                               0D    122
     128     226                                                00010000D    123
     128       0    -151      17       0                               0D    124
     128     243                                                00010000D    125
     128       0    -151      17       0                               0D    126
     128     260                                                00010000D    127
     128       0    -151      20       0                               0D    128
     128     280                                                00010000D    129
     128       0    -151      20       0                               0D    130
     128     300                                                00010000D    131
     128       0    -151      20       0                               0D    132
     128     320                                                00010000D    133
     128       0    -151       5       0                               0D    134
     128     325                                                00010000D    135
     128       0    -151      17       0                               0D    136
     128     342                                                00010000D    137
     128       0    -151       4       0                               0D    138
     128     346                                                00010000D    139
     128       0    -151      17       0                               0D    140
     128     363                                                00010000D    141
     128       0    -151       6       0                               0D    142
     128     369                                                00010000D    143
     128       0    -151       6       0                               0D    144
     502     375                                                00010000D    145
     502                      11       1                               0D    146
     504     386                                                00010001D    147
     504                       8       1                               0D    148
     406     394                                                00000000D    149
     406                       1      15                               0D    150
     314     395                                                00000200D    151
     314                       2       0                               0D    152
186,3,1,0,0,1,149;                                                     1P      1
514,11,5,1,7,1,9,1,11,1,13,1,15,1,17,1,19,1,21,1,23,1,25,1;            3P      2
510,123,1,1,27;                                                        5P      3
510,125,1,1,29;                                                        7P      4
510,127,1,1,31;                                                        9P      5
510,129,1,1,33;                                                       11P      6
510,131,1,1,35;                                                       13P      7
510,133,1,1,37;                                                       15P      8
510,135,1,1,39;                                                       17P      9
510,137,1,1,41;                                                       19P     10
510,139,1,1,43;                                                       21P     11
510,141,6,1,45,47,49,51,53,55;                                        23P     12
510,143,6,1,57,59,61,63,65,67;                                        25P     13
508,4,0,147,1,0,0,0,147,2,1,0,0,147,3,0,0,0,147,2,0,0;                27P     14
508,4,0,147,4,0,0,0,147,5,1,0,0,147,6,0,0,0,147,5,0,0;                29P     15
508,4,0,147,7,0,0,0,147,8,1,0,0,147,9,0,0,0,147,8,0,0;                31P     16
508,4,0,147,10,0,0,0,147,11,1,0,0,147,12,0,0,0,147,11,0,0;            33P     17
508,4,0,147,13,0,0,0,147,14,1,0,0,147,15,0,0,0,147,14,0,0;            35P     18
508,4,0,147,16,0,0,0,147,17,1,0,0,147,18,0,0,0,147,19,0,0;            37P     19
508,4,0,147,20,1,0,0,147,19,1,0,0,147,21,0,0,0,147,22,0,0;            39P     20
508,4,0,147,23,1,0,0,147,22,1,0,0,147,24,0,0,0,147,25,0,0;            41P     21
508,4,0,147,26,0,0,0,147,25,1,0,0,147,27,0,0,0,147,17,0,0;            43P     22
508,4,0,147,27,1,0,0,147,24,1,0,0,147,21,1,0,0,147,18,1,0;            45P     23
508,1,0,147,13,1,0;                                                   47P     24
508,1,0,147,10,1,0;                                                   49P     25
508,1,0,147,7,1,0;                                                    51P     26
508,1,0,147,4,1,0;                                                    53P     27
508,1,0,147,1,1,0;                                                    55P     28
508,4,0,147,26,1,0,0,147,16,1,0,0,147,20,0,0,0,147,23,0,0;            57P     29
508,1,0,147,15,1,0;                                                   59P     30
508,1,0,147,12,1,0;                                                   61P     31
508,1,0,147,9,1,0;                                                    63P     32
508,1,0,147,6,1,0;                                                    65P     33
508,1,0,147,3,1,0;                                                    67P     34
126,8,2,0,1,0,0,-3.14159265358979,-3.14159265358979,                  69P     35
-3.14159265358979,-1.5707963267949,-1.5707963267949,0.,0.,            69P     36
1.5707963267949,1.5707963267949,3.14159265358979,                     69P     37
3.14159265358979,3.14159265358979,1.,0.707106781186548,1.,            69P     38
0.707106781186548,1.,0.707106781186549,1.,0.707106781186549,1.,       69P     39
-36.9643178841871,-19.05,1.,-36.9643178841871,-15.08125,1.,           69P     40
-32.9955678841871,-15.08125,1.,-29.0268178841871,-15.08125,1.,        69P     41
-29.0268178841871,-19.05,1.,-29.0268178841871,-23.01875,1.,           69P     42
-32.9955678841871,-23.01875,1.,-36.9643178841871,-23.01875,1.,        69P     43
-36.9643178841871,-19.05,1.,-3.14159265358979,3.14159265358979,       69P     44
0.,0.,0.;                                                             69P     45
126,1,1,0,0,1,0,-0.251968503937008,-0.251968503937008,0.,0.,1.,       71P     46
1.,-36.9643178841871,-19.05,1.,-36.9643178841871,-19.05,0.,           71P     47
-0.251968503937008,0.,0.,0.,0.;                                       71P     48
126,8,2,0,1,0,0,-3.14159265358979,-3.14159265358979,                  73P     49
-3.14159265358979,-1.5707963267949,-1.5707963267949,0.,0.,            73P     50
1.5707963267949,1.5707963267949,3.14159265358979,                     73P     51
3.14159265358979,3.14159265358979,1.,0.707106781186549,1.,            73P     52
0.707106781186549,1.,0.707106781186548,1.,0.707106781186548,1.,       73P     53
-36.9643178841871,-19.05,0.,-36.9643178841871,-23.01875,0.,           73P     54
-32.9955678841871,-23.01875,0.,-29.0268178841871,-23.01875,0.,        73P     55
-29.0268178841871,-19.05,0.,-29.0268178841871,-15.08125,0.,           73P     56
-32.9955678841871,-15.08125,0.,-36.9643178841871,-15.08125,0.,        73P     57
-36.9643178841871,-19.05,0.,-3.14159265358979,3.14159265358979,       73P     58
0.,0.,0.;                                                             73P     59
126,8,2,0,1,0,0,-3.14159265358979,-3.14159265358979,                  75P     60
-3.14159265358979,-1.5707963267949,-1.5707963267949,0.,0.,            75P     61
1.5707963267949,1.5707963267949,3.14159265358979,                     75P     62
3.14159265358979,3.14159265358979,1.,0.707106781186548,1.,            75P     63
0.707106781186548,1.,0.707106781186549,1.,0.707106781186549,1.,       75P     64
29.0268178841871,-19.05,1.,29.0268178841871,-15.08125,1.,             75P     65
32.9955678841871,-15.08125,1.,36.9643178841871,-15.08125,1.,          75P     66
36.9643178841871,-19.05,1.,36.9643178841871,-23.01875,1.,             75P     67
32.9955678841871,-23.01875,1.,29.0268178841871,-23.01875,1.,          75P     68
29.0268178841871,-19.05,1.,-3.14159265358979,3.14159265358979,        75P     69
0.,0.,0.;                                                             75P     70
126,1,1,0,0,1,0,-0.251968503937008,-0.251968503937008,0.,0.,1.,       77P     71
1.,29.0268178841871,-19.05,1.,29.0268178841871,-19.05,0.,             77P     72
-0.251968503937008,0.,0.,0.,0.;                                       77P     73
126,8,2,0,1,0,0,-3.14159265358979,-3.14159265358979,                  79P     74
-3.14159265358979,-1.5707963267949,-1.5707963267949,0.,0.,            79P     75
1.5707963267949,1.5707963267949,3.14159265358979,                     79P     76
3.14159265358979,3.14159265358979,1.,0.707106781186549,1.,            79P     77
0.707106781186549,1.,0.707106781186548,1.,0.707106781186548,1.,       79P     78
29.0268178841871,-19.05,0.,29.0268178841871,-23.01875,0.,             79P     79
32.9955678841871,-23.01875,0.,36.9643178841871,-23.01875,0.,          79P     80
36.9643178841871,-19.05,0.,36.9643178841871,-15.08125,0.,             79P     81
32.9955678841871,-15.08125,0.,29.0268178841871,-15.08125,0.,          79P     82
29.0268178841871,-19.05,0.,-3.14159265358979,3.14159265358979,        79P     83
0.,0.,0.;                                                             79P     84
126,8,2,0,1,0,0,-3.14159265358979,-3.14159265358979,                  81P     85
-3.14159265358979,-1.5707963267949,-1.5707963267949,0.,0.,            81P     86
1.5707963267949,1.5707963267949,3.14159265358979,                     81P     87
3.14159265358979,3.14159265358979,1.,0.707106781186545,1.,            81P     88
0.707106781186546,1.,0.707106781186546,1.,0.707106781186545,1.,       81P     89
9.06221746070798,-35.8022888519431,1.,9.06221746070798,               81P     90
-31.8335388519431,1.,13.030967460708,-31.8335388519431,1.,            81P     91
16.999717460708,-31.8335388519431,1.,16.999717460708,                 81P     92
-35.8022888519431,1.,16.999717460708,-39.7710388519431,1.,            81P     93
13.030967460708,-39.7710388519431,1.,9.06221746070798,                81P     94
-39.7710388519431,1.,9.06221746070798,-35.8022888519431,1.,           81P     95
-3.14159265358979,3.14159265358979,0.,0.,0.;                          81P     96
126,1,1,0,0,1,0,-0.251968503937008,-0.251968503937008,0.,0.,1.,       83P     97
1.,9.06221746070798,-35.8022888519431,1.,9.06221746070798,            83P     98
-35.8022888519431,0.,-0.251968503937008,0.,0.,0.,0.;                  83P     99
126,8,2,0,1,0,0,-3.14159265358979,-3.14159265358979,                  85P    100
-3.14159265358979,-1.5707963267949,-1.5707963267949,0.,0.,            85P    101
1.5707963267949,1.5707963267949,3.14159265358979,                     85P    102
3.14159265358979,3.14159265358979,1.,0.707106781186545,1.,            85P    103
0.707106781186546,1.,0.707106781186546,1.,0.707106781186545,1.,       85P    104
9.06221746070798,-35.8022888519431,0.,9.06221746070798,               85P    105
-39.7710388519431,0.,13.030967460708,-39.7710388519431,0.,            85P    106
16.999717460708,-39.7710388519431,0.,16.999717460708,                 85P    107
-35.8022888519431,0.,16.999717460708,-31.8335388519431,0.,            85P    108
13.030967460708,-31.8335388519431,0.,9.06221746070798,                85P    109
-31.8335388519431,0.,9.06221746070798,-35.8022888519431,0.,           85P    110
-3.14159265358979,3.14159265358979,0.,0.,0.;                          85P    111
126,8,2,0,1,0,0,-3.14159265358979,-3.14159265358979,                  87P    112
-3.14159265358979,-1.5707963267949,-1.5707963267949,0.,0.,            87P    113
1.5707963267949,1.5707963267949,3.14159265358979,                     87P    114
3.14159265358979,3.14159265358979,1.,0.707106781186546,1.,            87P    115
0.707106781186546,1.,0.707106781186546,1.,0.707106781186546,1.,       87P    116
-16.999717460708,-35.8022888519431,1.,-16.999717460708,               87P    117
-31.8335388519431,1.,-13.030967460708,-31.8335388519431,1.,           87P    118
-9.06221746070798,-31.8335388519431,1.,-9.06221746070798,             87P    119
-35.8022888519431,1.,-9.06221746070798,-39.7710388519431,1.,          87P    120
-13.030967460708,-39.7710388519431,1.,-16.999717460708,               87P    121
-39.7710388519431,1.,-16.999717460708,-35.8022888519431,1.,           87P    122
-3.14159265358979,3.14159265358979,0.,0.,0.;                          87P    123
126,1,1,0,0,1,0,-0.251968503937008,-0.251968503937008,0.,0.,1.,       89P    124
1.,-16.999717460708,-35.8022888519431,1.,-16.999717460708,            89P    125
-35.8022888519431,0.,-0.251968503937008,0.,0.,0.,0.;                  89P    126
126,8,2,0,1,0,0,-3.14159265358979,-3.14159265358979,                  91P    127
-3.14159265358979,-1.5707963267949,-1.5707963267949,0.,0.,            91P    128
1.5707963267949,1.5707963267949,3.14159265358979,                     91P    129
3.14159265358979,3.14159265358979,1.,0.707106781186546,1.,            91P    130
0.707106781186546,1.,0.707106781186546,1.,0.707106781186546,1.,       91P    131
-16.999717460708,-35.8022888519431,0.,-16.999717460708,               91P    132
-39.7710388519431,0.,-13.030967460708,-39.7710388519431,0.,           91P    133
-9.06221746070798,-39.7710388519431,0.,-9.06221746070798,             91P    134
-35.8022888519431,0.,-9.06221746070798,-31.8335388519431,0.,          91P    135
-13.030967460708,-31.8335388519431,0.,-16.999717460708,               91P    136
-31.8335388519431,0.,-16.999717460708,-35.8022888519431,0.,           91P    137
-3.14159265358979,3.14159265358979,0.,0.,0.;                          91P    138
126,8,2,0,1,0,0,-3.14159265358979,-3.14159265358979,                  93P    139
-3.14159265358979,-1.5707963267949,-1.5707963267949,0.,0.,            93P    140
1.5707963267949,1.5707963267949,3.14159265358979,                     93P    141
3.14159265358979,3.14159265358979,1.,0.707106781186548,1.,            93P    142
0.707106781186548,1.,0.707106781186549,1.,0.707106781186549,1.,       93P    143
-41.4899253897651,6.61599556911005,1.,-41.4899253897651,              93P    144
10.5847455691101,1.,-37.5211753897651,10.5847455691101,1.,            93P    145
-33.5524253897651,10.5847455691101,1.,-33.5524253897651,              93P    146
6.61599556911005,1.,-33.5524253897651,2.64724556911005,1.,            93P    147
-37.5211753897651,2.64724556911005,1.,-41.4899253897651,              93P    148
2.64724556911005,1.,-41.4899253897651,6.61599556911005,1.,            93P    149
-3.14159265358979,3.14159265358979,0.,0.,0.;                          93P    150
126,1,1,0,0,1,0,-0.251968503937008,-0.251968503937008,0.,0.,1.,       95P    151
1.,-41.4899253897651,6.61599556911005,1.,-41.4899253897651,           95P    152
6.61599556911005,0.,-0.251968503937008,0.,0.,0.,0.;                   95P    153
126,8,2,0,1,0,0,-3.14159265358979,-3.14159265358979,                  97P    154
-3.14159265358979,-1.5707963267949,-1.5707963267949,0.,0.,            97P    155
1.5707963267949,1.5707963267949,3.14159265358979,                     97P    156
3.14159265358979,3.14159265358979,1.,0.707106781186549,1.,            97P    157
0.707106781186549,1.,0.707106781186548,1.,0.707106781186548,1.,       97P    158
-41.4899253897651,6.61599556911005,0.,-41.4899253897651,              97P    159
2.64724556911005,0.,-37.5211753897651,2.64724556911005,0.,            97P    160
-33.5524253897651,2.64724556911005,0.,-33.5524253897651,              97P    161
6.61599556911005,0.,-33.5524253897651,10.5847455691101,0.,            97P    162
-37.5211753897651,10.5847455691101,0.,-41.4899253897651,              97P    163
10.5847455691101,0.,-41.4899253897651,6.61599556911005,0.,            97P    164
-3.14159265358979,3.14159265358979,0.,0.,0.;                          97P    165
126,1,1,0,0,1,0,0.,0.,1.905,1.905,1.,1.,28.1408815423238,             99P    166
-4.96199667683255,0.,46.9014692372064,-8.26999446138758,0.,0.,        99P    167
1.905,0.,0.,0.;                                                       99P    168
126,1,1,0,0,1,0,0.,0.,0.1,0.1,1.,1.,28.1408815423238,                101P    169
-4.96199667683255,0.,28.1408815423238,-4.96199667683255,1.,0.,       101P    170
0.1,0.,0.,0.;                                                        101P    171
126,1,1,0,0,1,0,-1.905,-1.905,0.,0.,1.,1.,46.9014692372064,          103P    172
-8.26999446138758,1.,28.1408815423238,-4.96199667683255,1.,          103P    173
-1.905,0.,0.,0.,0.;                                                  103P    174
126,1,1,0,0,1,0,0.,0.,0.1,0.1,1.,1.,46.9014692372064,                105P    175
-8.26999446138758,0.,46.9014692372064,-8.26999446138758,1.,0.,       105P    176
0.1,0.,0.,0.;                                                        105P    177
126,6,2,0,0,0,0,2.61799387799149,2.61799387799149,                   107P    178
2.61799387799149,3.78154671265438,3.78154671265438,                  107P    179
4.94509954731727,4.94509954731727,6.10865238198015,                  107P    180
6.10865238198015,6.10865238198015,1.,0.835487811412936,1.,           107P    181
0.835487811412935,1.,0.835487811412935,1.,-41.2444598552339,         107P    182
23.8125,0.,-56.9061874849668,-3.31440798900271,0.,                   107P    183
-38.201117054959,-28.4396779298452,0.,-19.4960466249511,             107P    184
-53.5649478706877,0.,10.9830808441087,-46.3412619613641,0.,          107P    185
41.4622083131685,-39.1175760520405,0.,46.9014692372064,              107P    186
-8.2699944613876,0.,2.61799387799149,6.10865238198015,0.,0.,0.;      107P    187
126,6,2,0,0,0,0,2.61799387799149,2.61799387799149,                   109P    188
2.61799387799149,3.78154671265438,3.78154671265438,                  109P    189
4.94509954731727,4.94509954731727,6.10865238198015,                  109P    190
6.10865238198015,6.10865238198015,1.,0.835487811412936,1.,           109P    191
0.835487811412935,1.,0.835487811412935,1.,-41.2444598552339,         109P    192
23.8125,1.,-56.9061874849668,-3.31440798900271,1.,                   109P    193
-38.201117054959,-28.4396779298452,1.,-19.4960466249511,             109P    194
-53.5649478706877,1.,10.9830808441087,-46.3412619613641,1.,          109P    195
41.4622083131685,-39.1175760520405,1.,46.9014692372064,              109P    196
-8.2699944613876,1.,2.61799387799149,6.10865238198015,0.,0.,0.;      109P    197
126,1,1,0,0,1,0,0.,0.,0.1,0.1,1.,1.,-41.2444598552339,23.8125,       111P    198
0.,-41.2444598552339,23.8125,1.,0.,0.1,0.,0.,0.;                     111P    199
126,1,1,0,0,1,0,0.,0.,1.905,1.905,1.,1.,-24.7466759131403,           113P    200
14.2875,0.,-41.2444598552339,23.8125,0.,0.,1.905,0.,0.,0.;           113P    201
126,1,1,0,0,1,0,0.,0.,1.905,1.905,1.,1.,-24.7466759131403,           115P    202
14.2875,1.,-41.2444598552339,23.8125,1.,0.,1.905,0.,0.,0.;           115P    203
126,1,1,0,0,1,0,0.,0.,0.1,0.1,1.,1.,-24.7466759131403,14.2875,       117P    204
0.,-24.7466759131403,14.2875,1.,0.,0.1,0.,0.,0.;                     117P    205
126,6,2,0,0,0,0,2.61799387799149,2.61799387799149,                   119P    206
2.61799387799149,3.78154671265438,3.78154671265438,                  119P    207
4.94509954731727,4.94509954731727,6.10865238198015,                  119P    208
6.10865238198015,6.10865238198015,1.,0.835487811412935,1.,           119P    209
0.835487811412936,1.,0.835487811412935,1.,-24.7466759131403,         119P    210
14.2875,0.,-34.1437124909801,-1.98864479340162,0.,                   119P    211
-22.9206702329754,-17.0638067579071,0.,-11.6976279749707,            119P    212
-32.1389687224126,0.,6.58984850646522,-27.8047571768185,0.,          119P    213
24.8773249879011,-23.4705456312243,0.,28.1408815423238,              119P    214
-4.96199667683256,0.,2.61799387799149,6.10865238198015,0.,0.,0.;     119P    215
126,6,2,0,0,0,0,-6.10865238198015,-6.10865238198015,                 121P    216
-6.10865238198015,-4.94509954731727,-4.94509954731727,               121P    217
-3.78154671265438,-3.78154671265438,-2.61799387799149,               121P    218
-2.61799387799149,-2.61799387799149,1.,0.835487811412935,1.,         121P    219
0.835487811412936,1.,0.835487811412935,1.,28.1408815423238,          121P    220
-4.96199667683256,1.,24.8773249879011,-23.4705456312243,1.,          121P    221
6.58984850646522,-27.8047571768185,1.,-11.6976279749707,             121P    222
-32.1389687224126,1.,-22.9206702329754,-17.0638067579071,1.,         121P    223
-34.1437124909801,-1.98864479340162,1.,-24.7466759131403,            121P    224
14.2875,1.,-6.10865238198015,-2.61799387799149,0.,0.,0.;             121P    225
128,1,8,1,2,0,1,0,0,1,0.,0.,0.251968503937008,0.251968503937008,     123P    226
-3.14159265358979,-3.14159265358979,-3.14159265358979,               123P    227
-1.5707963267949,-1.5707963267949,0.,0.,1.5707963267949,             123P    228
1.5707963267949,3.14159265358979,3.14159265358979,                   123P    229
3.14159265358979,1.,1.,0.707106781186548,0.707106781186548,1.,       123P    230
1.,0.707106781186548,0.707106781186548,1.,1.,0.707106781186548,      123P    231
0.707106781186548,1.,1.,0.707106781186548,0.707106781186548,1.,      123P    232
1.,-36.9643178841871,-19.05,0.,-36.9643178841871,-19.05,1.,          123P    233
-36.9643178841871,-23.01875,0.,-36.9643178841871,-23.01875,1.,       123P    234
-32.9955678841871,-23.01875,0.,-32.9955678841871,-23.01875,1.,       123P    235
-29.0268178841871,-23.01875,0.,-29.0268178841871,-23.01875,1.,       123P    236
-29.0268178841871,-19.05,0.,-29.0268178841871,-19.05,1.,             123P    237
-29.0268178841871,-15.08125,0.,-29.0268178841871,-15.08125,1.,       123P    238
-32.9955678841871,-15.08125,0.,-32.9955678841871,-15.08125,1.,       123P    239
-36.9643178841871,-15.08125,0.,-36.9643178841871,-15.08125,1.,       123P    240
-36.9643178841871,-19.05,0.,-36.9643178841871,-19.05,1.,0.,          123P    241
0.251968503937008,-3.14159265358979,3.14159265358979;                123P    242
128,1,8,1,2,0,1,0,0,1,0.,0.,0.251968503937008,0.251968503937008,     125P    243
-3.14159265358979,-3.14159265358979,-3.14159265358979,               125P    244
-1.5707963267949,-1.5707963267949,0.,0.,1.5707963267949,             125P    245
1.5707963267949,3.14159265358979,3.14159265358979,                   125P    246
3.14159265358979,1.,1.,0.707106781186548,0.707106781186548,1.,       125P    247
1.,0.707106781186548,0.707106781186548,1.,1.,0.707106781186548,      125P    248
0.707106781186548,1.,1.,0.707106781186548,0.707106781186548,1.,      125P    249
1.,29.0268178841871,-19.05,0.,29.0268178841871,-19.05,1.,            125P    250
29.0268178841871,-23.01875,0.,29.0268178841871,-23.01875,1.,         125P    251
32.9955678841871,-23.01875,0.,32.9955678841871,-23.01875,1.,         125P    252
36.9643178841871,-23.01875,0.,36.9643178841871,-23.01875,1.,         125P    253
36.9643178841871,-19.05,0.,36.9643178841871,-19.05,1.,               125P    254
36.9643178841871,-15.08125,0.,36.9643178841871,-15.08125,1.,         125P    255
32.9955678841871,-15.08125,0.,32.9955678841871,-15.08125,1.,         125P    256
29.0268178841871,-15.08125,0.,29.0268178841871,-15.08125,1.,         125P    257
29.0268178841871,-19.05,0.,29.0268178841871,-19.05,1.,0.,            125P    258
0.251968503937008,-3.14159265358979,3.14159265358979;                125P    259
128,1,8,1,2,0,1,0,0,1,0.,0.,0.251968503937008,0.251968503937008,     127P    260
-3.14159265358979,-3.14159265358979,-3.14159265358979,               127P    261
-1.5707963267949,-1.5707963267949,0.,0.,1.5707963267949,             127P    262
1.5707963267949,3.14159265358979,3.14159265358979,                   127P    263
3.14159265358979,1.,1.,0.707106781186548,0.707106781186548,1.,       127P    264
1.,0.707106781186548,0.707106781186548,1.,1.,0.707106781186548,      127P    265
0.707106781186548,1.,1.,0.707106781186548,0.707106781186548,1.,      127P    266
1.,9.06221746070798,-35.8022888519431,0.,9.06221746070798,           127P    267
-35.8022888519431,1.,9.06221746070798,-39.7710388519431,0.,          127P    268
9.06221746070798,-39.7710388519431,1.,13.030967460708,               127P    269
-39.7710388519431,0.,13.030967460708,-39.7710388519431,1.,           127P    270
16.999717460708,-39.7710388519431,0.,16.999717460708,                127P    271
-39.7710388519431,1.,16.999717460708,-35.8022888519431,0.,           127P    272
16.999717460708,-35.8022888519431,1.,16.999717460708,                127P    273
-31.8335388519431,0.,16.999717460708,-31.8335388519431,1.,           127P    274
13.030967460708,-31.8335388519431,0.,13.030967460708,                127P    275
-31.8335388519431,1.,9.06221746070798,-31.8335388519431,0.,          127P    276
9.06221746070798,-31.8335388519431,1.,9.06221746070798,              127P    277
-35.8022888519431,0.,9.06221746070798,-35.8022888519431,1.,0.,       127P    278
0.251968503937008,-3.14159265358979,3.14159265358979;                127P    279
128,1,8,1,2,0,1,0,0,1,0.,0.,0.251968503937008,0.251968503937008,     129P    280
-3.14159265358979,-3.14159265358979,-3.14159265358979,               129P    281
-1.5707963267949,-1.5707963267949,0.,0.,1.5707963267949,             129P    282
1.5707963267949,3.14159265358979,3.14159265358979,                   129P    283
3.14159265358979,1.,1.,0.707106781186548,0.707106781186548,1.,       129P    284
1.,0.707106781186548,0.707106781186548,1.,1.,0.707106781186548,      129P    285
0.707106781186548,1.,1.,0.707106781186548,0.707106781186548,1.,      129P    286
1.,-16.999717460708,-35.8022888519431,0.,-16.999717460708,           129P    287
-35.8022888519431,1.,-16.999717460708,-39.7710388519431,0.,          129P    288
-16.999717460708,-39.7710388519431,1.,-13.030967460708,              129P    289
-39.7710388519431,0.,-13.030967460708,-39.7710388519431,1.,          129P    290
-9.06221746070799,-39.7710388519431,0.,-9.06221746070799,            129P    291
-39.7710388519431,1.,-9.06221746070798,-35.8022888519431,0.,         129P    292
-9.06221746070798,-35.8022888519431,1.,-9.06221746070799,            129P    293
-31.8335388519431,0.,-9.06221746070799,-31.8335388519431,1.,         129P    294
-13.030967460708,-31.8335388519431,0.,-13.030967460708,              129P    295
-31.8335388519431,1.,-16.999717460708,-31.8335388519431,0.,          129P    296
-16.999717460708,-31.8335388519431,1.,-16.999717460708,              129P    297
-35.8022888519431,0.,-16.999717460708,-35.8022888519431,1.,0.,       129P    298
0.251968503937008,-3.14159265358979,3.14159265358979;                129P    299
128,1,8,1,2,0,1,0,0,1,0.,0.,0.251968503937008,0.251968503937008,     131P    300
-3.14159265358979,-3.14159265358979,-3.14159265358979,               131P    301
-1.5707963267949,-1.5707963267949,0.,0.,1.5707963267949,             131P    302
1.5707963267949,3.14159265358979,3.14159265358979,                   131P    303
3.14159265358979,1.,1.,0.707106781186548,0.707106781186548,1.,       131P    304
1.,0.707106781186548,0.707106781186548,1.,1.,0.707106781186548,      131P    305
0.707106781186548,1.,1.,0.707106781186548,0.707106781186548,1.,      131P    306
1.,-41.4899253897651,6.61599556911005,0.,-41.4899253897651,          131P    307
6.61599556911005,1.,-41.4899253897651,2.64724556911005,0.,           131P    308
-41.4899253897651,2.64724556911005,1.,-37.5211753897651,             131P    309
2.64724556911005,0.,-37.5211753897651,2.64724556911005,1.,           131P    310
-33.5524253897651,2.64724556911005,0.,-33.5524253897651,             131P    311
2.64724556911005,1.,-33.5524253897651,6.61599556911005,0.,           131P    312
-33.5524253897651,6.61599556911005,1.,-33.5524253897651,             131P    313
10.5847455691101,0.,-33.5524253897651,10.5847455691101,1.,           131P    314
-37.5211753897651,10.5847455691101,0.,-37.5211753897651,             131P    315
10.5847455691101,1.,-41.4899253897651,10.5847455691101,0.,           131P    316
-41.4899253897651,10.5847455691101,1.,-41.4899253897651,             131P    317
6.61599556911005,0.,-41.4899253897651,6.61599556911005,1.,0.,        131P    318
0.251968503937008,-3.14159265358979,3.14159265358979;                131P    319
128,1,1,1,1,0,0,1,0,0,-0.001,-0.001,1.906,1.906,-0.001,-0.001,       133P    320
0.101,0.101,1.,1.,1.,1.,46.9113173147365,-8.27173094316425,          133P    321
-0.01,28.1310334647937,-4.96026019505588,-0.01,46.9113173147365,     133P    322
-8.27173094316425,1.01,28.1310334647937,-4.96026019505588,1.01,      133P    323
-0.001,1.906,-0.001,0.101;                                           133P    324
128,1,6,1,2,0,0,0,0,0,0.,0.,0.020997375328084,0.020997375328084,     135P    325
2.61799387799149,2.61799387799149,2.61799387799149,                  135P    326
3.78154671265438,3.78154671265438,4.94509954731727,                  135P    327
4.94509954731727,6.10865238198015,6.10865238198015,                  135P    328
6.10865238198015,1.,1.,0.835487811412937,0.835487811412937,1.,       135P    329
1.,0.835487811412937,0.835487811412937,1.,1.,0.835487811412937,      135P    330
0.835487811412937,1.,1.,-41.2444598552339,23.8125,1.,                135P    331
-41.2444598552339,23.8125,0.,-56.9061874849668,-3.3144079890027,     135P    332
1.,-56.9061874849668,-3.3144079890027,0.,-38.201117054959,           135P    333
-28.4396779298452,1.,-38.201117054959,-28.4396779298452,0.,          135P    334
-19.4960466249511,-53.5649478706877,1.,-19.4960466249511,            135P    335
-53.5649478706877,0.,10.9830808441087,-46.3412619613641,1.,          135P    336
10.9830808441087,-46.3412619613641,0.,41.4622083131685,              135P    337
-39.1175760520406,1.,41.4622083131685,-39.1175760520406,0.,          135P    338
46.9014692372064,-8.26999446138764,1.,46.9014692372064,              135P    339
-8.26999446138764,0.,0.,0.020997375328084,2.61799387799149,          135P    340
6.10865238198015;                                                    135P    341
128,1,1,1,1,0,0,1,0,0,-0.001,-0.001,1.906,1.906,-0.001,-0.001,       137P    342
0.101,0.101,1.,1.,1.,1.,-24.7380156591025,14.2825,-0.01,             137P    343
-41.2531201092717,23.8175,-0.01,-24.7380156591025,14.2825,1.01,      137P    344
-41.2531201092717,23.8175,1.01,-0.001,1.906,-0.001,0.101;            137P    345
128,1,6,1,2,0,0,0,0,0,0.,0.,0.0349956255468067,                      139P    346
0.0349956255468067,2.61799387799149,2.61799387799149,                139P    347
2.61799387799149,3.78154671265438,3.78154671265438,                  139P    348
4.94509954731727,4.94509954731727,6.10865238198015,                  139P    349
6.10865238198015,6.10865238198015,1.,1.,0.835487811412937,           139P    350
0.835487811412937,1.,1.,0.835487811412937,0.835487811412937,1.,      139P    351
1.,0.835487811412937,0.835487811412937,1.,1.,-24.7466759131403,      139P    352
14.2875,0.,-24.7466759131403,14.2875,1.,-34.1437124909801,           139P    353
-1.98864479340162,0.,-34.1437124909801,-1.98864479340162,1.,         139P    354
-22.9206702329754,-17.0638067579071,0.,-22.9206702329754,            139P    355
-17.0638067579071,1.,-11.6976279749707,-32.1389687224126,0.,         139P    356
-11.6976279749707,-32.1389687224126,1.,6.5898485064652,              139P    357
-27.8047571768185,0.,6.5898485064652,-27.8047571768185,1.,           139P    358
24.8773249879011,-23.4705456312243,0.,24.8773249879011,              139P    359
-23.4705456312243,1.,28.1408815423238,-4.96199667683259,0.,          139P    360
28.1408815423238,-4.96199667683259,1.,0.,0.0349956255468067,         139P    361
2.61799387799149,6.10865238198015;                                   139P    362
128,1,1,1,1,0,0,1,0,0,-5.69161874849668,-5.69161874849668,           141P    363
4.69114692372064,4.69114692372064,-5.35749478706877,                 141P    364
-5.35749478706877,2.38225,2.38225,1.,1.,1.,1.,-56.9161874849668,     141P    365
-53.5749478706877,1.,46.9114692372064,-53.5749478706877,1.,          141P    366
-56.9161874849668,23.8225,1.,46.9114692372064,23.8225,1.,            141P    367
-5.69161874849668,4.69114692372064,-5.35749478706877,2.38225;        141P    368
128,1,1,1,1,0,0,1,0,0,-5.69161874849668,-5.69161874849668,           143P    369
4.69114692372064,4.69114692372064,-5.35749478706877,                 143P    370
-5.35749478706877,2.38225,2.38225,1.,1.,1.,1.,46.9114692372064,      143P    371
-53.5749478706877,0.,-56.9161874849668,-53.5749478706877,0.,         143P    372
46.9114692372064,23.8225,0.,-56.9161874849668,23.8225,0.,            143P    373
-5.69161874849668,4.69114692372064,-5.35749478706877,2.38225;        143P    374
502,18,-36.9643178841871,-19.05,1.,-36.9643178841871,-19.05,0.,      145P    375
29.0268178841871,-19.05,1.,29.0268178841871,-19.05,0.,               145P    376
9.06221746070798,-35.8022888519431,1.,9.06221746070798,              145P    377
-35.8022888519431,0.,-16.999717460708,-35.8022888519431,1.,          145P    378
-16.999717460708,-35.8022888519431,0.,-41.4899253897651,             145P    379
6.61599556911005,1.,-41.4899253897651,6.61599556911005,0.,           145P    380
28.1408815423238,-4.96199667683255,0.,46.9014692372064,              145P    381
-8.26999446138758,0.,28.1408815423238,-4.96199667683255,1.,          145P    382
46.9014692372064,-8.26999446138758,1.,-41.2444598552339,23.8125,     145P    383
0.,-41.2444598552339,23.8125,1.,-24.7466759131403,14.2875,0.,        145P    384
-24.7466759131403,14.2875,1.;                                        145P    385
504,27,69,145,1,145,1,71,145,1,145,2,73,145,2,145,2,75,145,3,        147P    386
145,3,77,145,3,145,4,79,145,4,145,4,81,145,5,145,5,83,145,5,145,     147P    387
6,85,145,6,145,6,87,145,7,145,7,89,145,7,145,8,91,145,8,145,8,       147P    388
93,145,9,145,9,95,145,9,145,10,97,145,10,145,10,99,145,11,145,       147P    389
12,101,145,11,145,13,103,145,14,145,13,105,145,12,145,14,107,        147P    390
145,15,145,12,109,145,16,145,14,111,145,15,145,16,113,145,17,        147P    391
145,15,115,145,18,145,16,117,145,17,145,18,119,145,17,145,11,        147P    392
121,145,13,145,18;                                                   147P    393
406,1,29HSpacer 0.75in - 5 Holes - 1mm;                              149P    394
314,62.7450980392157,62.7450980392157,62.7450980392157,13HSteel      151P    395
- Satin;                                                             151P    396
S      1G      3D    152P    396                                        T      1
