                                                                        S      1
,,29HSpacer 0.75in - 4 Holes - 5mm,29HSpacer 0.75in - 4 Holes - 5mm,7HunG      1
known,7Hunknown,32,38,7,99,15,,1.,2,2HMM,1,0.08,15H20230522.221508,0.01,G      2
10000.,7Hunknown,7Hunknown,11,0,;                                       G      3
     186       1                                                00000000D      1
     186            -135       1       0                               0D      2
     514       2                                                00010000D      3
     514                       1       1                               0D      4
     510       3                                                00010000D      5
     510            -135       1       1                               0D      6
     510       4                                                00010000D      7
     510            -135       1       1                               0D      8
     510       5                                                00010000D      9
     510            -135       1       1                               0D     10
     510       6                                                00010000D     11
     510            -135       1       1                               0D     12
     510       7                                                00010000D     13
     510            -135       1       1                               0D     14
     510       8                                                00010000D     15
     510            -135       1       1                               0D     16
     510       9                                                00010000D     17
     510            -135       1       1                               0D     18
     510      10                                                00010000D     19
     510            -135       1       1                               0D     20
     510      11                                                00010000D     21
     510            -135       1       1                               0D     22
     510      12                                                00010000D     23
     510            -135       1       1                               0D     24
     508      13                                                00010000D     25
     508                       1       1                               0D     26
     508      14                                                00010000D     27
     508                       1       1                               0D     28
     508      15                                                00010000D     29
     508                       1       1                               0D     30
     508      16                                                00010000D     31
     508                       1       1                               0D     32
     508      17                                                00010000D     33
     508                       1       1                               0D     34
     508      18                                                00010000D     35
     508                       1       1                               0D     36
     508      19                                                00010000D     37
     508                       1       1                               0D     38
     508      20                                                00010000D     39
     508                       1       1                               0D     40
     508      21                                                00010000D     41
     508                       1       1                               0D     42
     508      22                                                00010000D     43
     508                       1       1                               0D     44
     508      23                                                00010000D     45
     508                       1       1                               0D     46
     508      24                                                00010000D     47
     508                       1       1                               0D     48
     508      25                                                00010000D     49
     508                       1       1                               0D     50
     508      26                                                00010000D     51
     508                       1       1                               0D     52
     508      27                                                00010000D     53
     508                       1       1                               0D     54
     508      28                                                00010000D     55
     508                       1       1                               0D     56
     508      29                                                00010000D     57
     508                       1       1                               0D     58
     508      30                                                00010000D     59
     508                       1       1                               0D     60
     126      31                                                00010000D     61
     126       0               9       0                               0D     62
     126      40                                                00010000D     63
     126       0               2       0                               0D     64
     126      42                                                00010000D     65
     126       0               9       0                               0D     66
     126      51                                                00010000D     67
     126       0              12       0                               0D     68
     126      63                                                00010000D     69
     126       0               3       0                               0D     70
     126      66                                                00010000D     71
     126       0              12       0                               0D     72
     126      78                                                00010000D     73
     126       0              12       0                               0D     74
     126      90                                                00010000D     75
     126       0               3       0                               0D     76
     126      93                                                00010000D     77
     126       0              12       0                               0D     78
     126     105                                                00010000D     79
     126       0              12       0                               0D     80
     126     117                                                00010000D     81
     126       0               3       0                               0D     82
     126     120                                                00010000D     83
     126       0              12       0                               0D     84
     126     132                                                00010000D     85
     126       0               2       0                               0D     86
     126     134                                                00010000D     87
     126       0               2       0                               0D     88
     126     136                                                00010000D     89
     126       0               2       0                               0D     90
     126     138                                                00010000D     91
     126       0               2       0                               0D     92
     126     140                                                00010000D     93
     126       0               8       0                               0D     94
     126     148                                                00010000D     95
     126       0               8       0                               0D     96
     126     156                                                00010000D     97
     126       0               3       0                               0D     98
     126     159                                                00010000D     99
     126       0               3       0                               0D    100
     126     162                                                00010000D    101
     126       0               3       0                               0D    102
     126     165                                                00010000D    103
     126       0               3       0                               0D    104
     126     168                                                00010000D    105
     126       0               8       0                               0D    106
     126     176                                                00010000D    107
     126       0               8       0                               0D    108
     128     184                                                00010000D    109
     128       0    -135      14       0                               0D    110
     128     198                                                00010000D    111
     128       0    -135      20       0                               0D    112
     128     218                                                00010000D    113
     128       0    -135      20       0                               0D    114
     128     238                                                00010000D    115
     128       0    -135      20       0                               0D    116
     128     258                                                00010000D    117
     128       0    -135       4       0                               0D    118
     128     262                                                00010000D    119
     128       0    -135      13       0                               0D    120
     128     275                                                00010000D    121
     128       0    -135       5       0                               0D    122
     128     280                                                00010000D    123
     128       0    -135      13       0                               0D    124
     128     293                                                00010000D    125
     128       0    -135       7       0                               0D    126
     128     300                                                00010000D    127
     128       0    -135       7       0                               0D    128
     502     307                                                00010000D    129
     502                       9       1                               0D    130
     504     316                                                00010001D    131
     504                       7       1                               0D    132
     406     323                                                00000000D    133
     406                       1      15                               0D    134
     314     324                                                00000200D    135
     314                       2       0                               0D    136
186,3,1,0,0,1,133;                                                     1P      1
514,10,5,1,7,1,9,1,11,1,13,1,15,1,17,1,19,1,21,1,23,1;                 3P      2
510,109,1,1,25;                                                        5P      3
510,111,1,1,27;                                                        7P      4
510,113,1,1,29;                                                        9P      5
510,115,1,1,31;                                                       11P      6
510,117,1,1,33;                                                       13P      7
510,119,1,1,35;                                                       15P      8
510,121,1,1,37;                                                       17P      9
510,123,1,1,39;                                                       19P     10
510,125,5,1,41,43,45,47,49;                                           21P     11
510,127,5,1,51,53,55,57,59;                                           23P     12
508,4,0,131,1,0,0,0,131,2,1,0,0,131,3,0,0,0,131,2,0,0;                25P     13
508,4,0,131,4,0,0,0,131,5,1,0,0,131,6,0,0,0,131,5,0,0;                27P     14
508,4,0,131,7,0,0,0,131,8,1,0,0,131,9,0,0,0,131,8,0,0;                29P     15
508,4,0,131,10,0,0,0,131,11,1,0,0,131,12,0,0,0,131,11,0,0;            31P     16
508,4,0,131,13,0,0,0,131,14,1,0,0,131,15,0,0,0,131,16,0,0;            33P     17
508,4,0,131,17,1,0,0,131,16,1,0,0,131,18,0,0,0,131,19,0,0;            35P     18
508,4,0,131,20,1,0,0,131,19,1,0,0,131,21,0,0,0,131,22,0,0;            37P     19
508,4,0,131,23,0,0,0,131,22,1,0,0,131,24,0,0,0,131,14,0,0;            39P     20
508,4,0,131,24,1,0,0,131,21,1,0,0,131,18,1,0,0,131,15,1,0;            41P     21
508,1,0,131,10,1,0;                                                   43P     22
508,1,0,131,7,1,0;                                                    45P     23
508,1,0,131,4,1,0;                                                    47P     24
508,1,0,131,1,1,0;                                                    49P     25
508,4,0,131,23,1,0,0,131,13,1,0,0,131,17,0,0,0,131,20,0,0;            51P     26
508,1,0,131,12,1,0;                                                   53P     27
508,1,0,131,9,1,0;                                                    55P     28
508,1,0,131,6,1,0;                                                    57P     29
508,1,0,131,3,1,0;                                                    59P     30
126,8,2,0,1,0,0,-3.14159265358979,-3.14159265358979,                  61P     31
-3.14159265358979,-1.5707963267949,-1.5707963267949,0.,0.,            61P     32
1.5707963267949,1.5707963267949,3.14159265358979,                     61P     33
3.14159265358979,3.14159265358979,1.,0.707106781186549,1.,            61P     34
0.707106781186549,1.,0.707106781186546,1.,0.707106781186546,1.,       61P     35
-3.96875,38.1,5.,-3.96875,42.06875,5.,2.43015849205803D-16,           61P     36
42.06875,5.,3.96875,42.06875,5.,3.96875,38.1,5.,3.96875,              61P     37
34.13125,5.,2.43015849205803D-16,34.13125,5.,-3.96875,34.13125,       61P     38
5.,-3.96875,38.1,5.,-3.14159265358979,3.14159265358979,0.,0.,0.;      61P     39
126,1,1,0,0,1,0,-1.25984251968504,-1.25984251968504,0.,0.,1.,1.,      63P     40
-3.96875,38.1,5.,-3.96875,38.1,0.,-1.25984251968504,0.,0.,0.,0.;      63P     41
126,8,2,0,1,0,0,-3.14159265358979,-3.14159265358979,                  65P     42
-3.14159265358979,-1.5707963267949,-1.5707963267949,0.,0.,            65P     43
1.5707963267949,1.5707963267949,3.14159265358979,                     65P     44
3.14159265358979,3.14159265358979,1.,0.707106781186546,1.,            65P     45
0.707106781186546,1.,0.707106781186549,1.,0.707106781186549,1.,       65P     46
-3.96875,38.1,0.,-3.96875,34.13125,0.,2.43015849205803D-16,           65P     47
34.13125,0.,3.96875,34.13125,0.,3.96875,38.1,0.,3.96875,              65P     48
42.06875,0.,2.43015849205803D-16,42.06875,0.,-3.96875,42.06875,       65P     49
0.,-3.96875,38.1,0.,-3.14159265358979,3.14159265358979,0.,0.,0.;      65P     50
126,8,2,0,1,0,0,-3.14159265358979,-3.14159265358979,                  67P     51
-3.14159265358979,-1.5707963267949,-1.5707963267949,0.,0.,            67P     52
1.5707963267949,1.5707963267949,3.14159265358979,                     67P     53
3.14159265358979,3.14159265358979,1.,0.707106781186549,1.,            67P     54
0.707106781186549,1.,0.707106781186549,1.,0.707106781186549,1.,       67P     55
33.5524253897651,6.61599556911003,5.,33.5524253897651,                67P     56
10.58474556911,5.,37.5211753897651,10.58474556911,5.,                 67P     57
41.4899253897651,10.58474556911,5.,41.4899253897651,                  67P     58
6.61599556911003,5.,41.4899253897651,2.64724556911003,5.,             67P     59
37.5211753897651,2.64724556911003,5.,33.5524253897651,                67P     60
2.64724556911003,5.,33.5524253897651,6.61599556911003,5.,             67P     61
-3.14159265358979,3.14159265358979,0.,0.,0.;                          67P     62
126,1,1,0,0,1,0,-1.25984251968504,-1.25984251968504,0.,0.,1.,1.,      69P     63
33.5524253897651,6.61599556911003,5.,33.5524253897651,                69P     64
6.61599556911003,0.,-1.25984251968504,0.,0.,0.,0.;                    69P     65
126,8,2,0,1,0,0,-3.14159265358979,-3.14159265358979,                  71P     66
-3.14159265358979,-1.5707963267949,-1.5707963267949,0.,0.,            71P     67
1.5707963267949,1.5707963267949,3.14159265358979,                     71P     68
3.14159265358979,3.14159265358979,1.,0.707106781186549,1.,            71P     69
0.707106781186549,1.,0.707106781186549,1.,0.707106781186549,1.,       71P     70
33.5524253897651,6.61599556911003,0.,33.5524253897651,                71P     71
2.64724556911003,0.,37.5211753897651,2.64724556911003,0.,             71P     72
41.4899253897651,2.64724556911003,0.,41.4899253897651,                71P     73
6.61599556911003,0.,41.4899253897651,10.58474556911,0.,               71P     74
37.5211753897651,10.58474556911,0.,33.5524253897651,                  71P     75
10.58474556911,0.,33.5524253897651,6.61599556911003,0.,               71P     76
-3.14159265358979,3.14159265358979,0.,0.,0.;                          71P     77
126,8,2,0,1,0,0,-3.14159265358979,-3.14159265358979,                  73P     78
-3.14159265358979,-1.5707963267949,-1.5707963267949,0.,0.,            73P     79
1.5707963267949,1.5707963267949,3.14159265358979,                     73P     80
3.14159265358979,3.14159265358979,1.,0.70710678118655,1.,             73P     81
0.70710678118655,1.,0.70710678118655,1.,0.70710678118655,1.,          73P     82
20.5214579290572,29.1862932828331,5.,20.5214579290572,                73P     83
33.1550432828331,5.,24.4902079290572,33.1550432828331,5.,             73P     84
28.4589579290572,33.1550432828331,5.,28.4589579290572,                73P     85
29.1862932828331,5.,28.4589579290572,25.2175432828331,5.,             73P     86
24.4902079290572,25.2175432828331,5.,20.5214579290572,                73P     87
25.2175432828331,5.,20.5214579290572,29.1862932828331,5.,             73P     88
-3.14159265358979,3.14159265358979,0.,0.,0.;                          73P     89
126,1,1,0,0,1,0,-1.25984251968504,-1.25984251968504,0.,0.,1.,1.,      75P     90
20.5214579290572,29.1862932828331,5.,20.5214579290572,                75P     91
29.1862932828331,0.,-1.25984251968504,0.,0.,0.,0.;                    75P     92
126,8,2,0,1,0,0,-3.14159265358979,-3.14159265358979,                  77P     93
-3.14159265358979,-1.5707963267949,-1.5707963267949,0.,0.,            77P     94
1.5707963267949,1.5707963267949,3.14159265358979,                     77P     95
3.14159265358979,3.14159265358979,1.,0.70710678118655,1.,             77P     96
0.70710678118655,1.,0.70710678118655,1.,0.70710678118655,1.,          77P     97
20.5214579290572,29.1862932828331,0.,20.5214579290572,                77P     98
25.2175432828331,0.,24.4902079290572,25.2175432828331,0.,             77P     99
28.4589579290572,25.2175432828331,0.,28.4589579290572,                77P    100
29.1862932828331,0.,28.4589579290572,33.1550432828331,0.,             77P    101
24.4902079290572,33.1550432828331,0.,20.5214579290572,                77P    102
33.1550432828331,0.,20.5214579290572,29.1862932828331,0.,             77P    103
-3.14159265358979,3.14159265358979,0.,0.,0.;                          77P    104
126,8,2,0,1,0,0,-3.14159265358979,-3.14159265358979,                  79P    105
-3.14159265358979,-1.5707963267949,-1.5707963267949,0.,0.,            79P    106
1.5707963267949,1.5707963267949,3.14159265358979,                     79P    107
3.14159265358979,3.14159265358979,1.,0.70710678118655,1.,             79P    108
0.70710678118655,1.,0.70710678118655,1.,0.70710678118655,1.,          79P    109
-28.4589579290571,29.1862932828331,5.,-28.4589579290571,              79P    110
33.1550432828331,5.,-24.4902079290571,33.1550432828331,5.,            79P    111
-20.5214579290571,33.1550432828331,5.,-20.5214579290571,              79P    112
29.1862932828331,5.,-20.5214579290571,25.2175432828331,5.,            79P    113
-24.4902079290571,25.2175432828331,5.,-28.4589579290571,              79P    114
25.2175432828331,5.,-28.4589579290571,29.1862932828331,5.,            79P    115
-3.14159265358979,3.14159265358979,0.,0.,0.;                          79P    116
126,1,1,0,0,1,0,-1.25984251968504,-1.25984251968504,0.,0.,1.,1.,      81P    117
-28.4589579290571,29.1862932828331,5.,-28.4589579290571,              81P    118
29.1862932828331,0.,-1.25984251968504,0.,0.,0.,0.;                    81P    119
126,8,2,0,1,0,0,-3.14159265358979,-3.14159265358979,                  83P    120
-3.14159265358979,-1.5707963267949,-1.5707963267949,0.,0.,            83P    121
1.5707963267949,1.5707963267949,3.14159265358979,                     83P    122
3.14159265358979,3.14159265358979,1.,0.70710678118655,1.,             83P    123
0.70710678118655,1.,0.70710678118655,1.,0.70710678118655,1.,          83P    124
-28.4589579290571,29.1862932828331,0.,-28.4589579290571,              83P    125
25.2175432828331,0.,-24.4902079290571,25.2175432828331,0.,            83P    126
-20.5214579290571,25.2175432828331,0.,-20.5214579290571,              83P    127
29.1862932828331,0.,-20.5214579290571,33.1550432828331,0.,            83P    128
-24.4902079290571,33.1550432828331,0.,-28.4589579290571,              83P    129
33.1550432828331,0.,-28.4589579290571,29.1862932828331,0.,            83P    130
-3.14159265358979,3.14159265358979,0.,0.,0.;                          83P    131
126,1,1,0,0,1,0,0.,0.,1.905,1.905,1.,1.,-24.7466759131403,            85P    132
14.2875,0.,-41.2444598552339,23.8125,0.,0.,1.905,0.,0.,0.;            85P    133
126,1,1,0,0,1,0,0.,0.,0.5,0.5,1.,1.,-24.7466759131403,14.2875,        87P    134
0.,-24.7466759131403,14.2875,5.,0.,0.5,0.,0.,0.;                      87P    135
126,1,1,0,0,1,0,-1.905,-1.905,0.,0.,1.,1.,-41.2444598552339,          89P    136
23.8125,5.,-24.7466759131403,14.2875,5.,-1.905,0.,0.,0.,0.;           89P    137
126,1,1,0,0,1,0,0.,0.,0.5,0.5,1.,1.,-41.2444598552339,23.8125,        91P    138
0.,-41.2444598552339,23.8125,5.,0.,0.5,0.,0.,0.;                      91P    139
126,4,2,0,0,0,0,-0.174532925199433,-0.174532925199433,                93P    140
-0.174532925199433,1.22173047639603,1.22173047639603,                 93P    141
2.61799387799149,2.61799387799149,2.61799387799149,1.,                93P    142
0.766044443118977,1.,0.766044443118978,1.,46.9014692372064,           93P    143
-8.26999446138758,0.,53.8408185395949,31.0850110772249,0.,            93P    144
16.288709325885,44.7528610649289,0.,-21.2633998878249,                93P    145
58.4207110526329,0.,-41.2444598552339,23.8125,0.,                     93P    146
-0.174532925199433,2.61799387799149,0.,0.,0.;                         93P    147
126,4,2,0,0,0,0,-0.174532925199433,-0.174532925199433,                95P    148
-0.174532925199433,1.22173047639603,1.22173047639603,                 95P    149
2.61799387799149,2.61799387799149,2.61799387799149,1.,                95P    150
0.766044443118977,1.,0.766044443118978,1.,46.9014692372064,           95P    151
-8.26999446138758,5.,53.8408185395949,31.0850110772249,5.,            95P    152
16.288709325885,44.7528610649289,5.,-21.2633998878249,                95P    153
58.4207110526329,5.,-41.2444598552339,23.8125,5.,                     95P    154
-0.174532925199433,2.61799387799149,0.,0.,0.;                         95P    155
126,1,1,0,0,1,0,0.,0.,0.5,0.5,1.,1.,46.9014692372064,                 97P    156
-8.26999446138758,0.,46.9014692372064,-8.26999446138758,5.,0.,        97P    157
0.5,0.,0.,0.;                                                         97P    158
126,1,1,0,0,1,0,0.,0.,1.905,1.905,1.,1.,28.1408815423238,             99P    159
-4.96199667683255,0.,46.9014692372064,-8.26999446138758,0.,0.,        99P    160
1.905,0.,0.,0.;                                                       99P    161
126,1,1,0,0,1,0,0.,0.,1.905,1.905,1.,1.,28.1408815423238,            101P    162
-4.96199667683255,5.,46.9014692372064,-8.26999446138758,5.,0.,       101P    163
1.905,0.,0.,0.;                                                      101P    164
126,1,1,0,0,1,0,0.,0.,0.5,0.5,1.,1.,28.1408815423238,                103P    165
-4.96199667683255,0.,28.1408815423238,-4.96199667683255,5.,0.,       103P    166
0.5,0.,0.,0.;                                                        103P    167
126,4,2,0,0,0,0,-0.174532925199433,-0.174532925199433,               105P    168
-0.174532925199433,1.22173047639603,1.22173047639603,                105P    169
2.61799387799149,2.61799387799149,2.61799387799149,1.,               105P    170
0.766044443118978,1.,0.766044443118978,1.,28.1408815423238,          105P    171
-4.96199667683255,0.,32.3044911237569,18.6510066463349,0.,           105P    172
9.77322559553098,26.8517166389573,0.,-12.758039932695,               105P    173
35.0524266315797,0.,-24.7466759131403,14.2875,0.,                    105P    174
-0.174532925199433,2.61799387799149,0.,0.,0.;                        105P    175
126,4,2,0,0,0,0,-2.61799387799149,-2.61799387799149,                 107P    176
-2.61799387799149,-1.22173047639603,-1.22173047639603,               107P    177
0.174532925199433,0.174532925199433,0.174532925199433,1.,            107P    178
0.766044443118978,1.,0.766044443118978,1.,-24.7466759131403,         107P    179
14.2875,5.,-12.758039932695,35.0524266315797,5.,                     107P    180
9.77322559553098,26.8517166389573,5.,32.3044911237569,               107P    181
18.6510066463349,5.,28.1408815423238,-4.96199667683255,5.,           107P    182
-2.61799387799149,0.174532925199433,0.,0.,0.;                        107P    183
128,1,8,1,2,0,1,0,0,1,0.,0.,1.25984251968504,1.25984251968504,       109P    184
-3.14159265358979,-3.14159265358979,-3.14159265358979,               109P    185
-1.5707963267949,-1.5707963267949,0.,0.,1.5707963267949,             109P    186
1.5707963267949,3.14159265358979,3.14159265358979,                   109P    187
3.14159265358979,1.,1.,0.707106781186548,0.707106781186548,1.,       109P    188
1.,0.707106781186548,0.707106781186548,1.,1.,0.707106781186548,      109P    189
0.707106781186548,1.,1.,0.707106781186548,0.707106781186548,1.,      109P    190
1.,-3.96875,38.1,0.,-3.96875,38.1,5.,-3.96875,34.13125,0.,           109P    191
-3.96875,34.13125,5.,0.,34.13125,0.,0.,34.13125,5.,3.96875,          109P    192
34.13125,0.,3.96875,34.13125,5.,3.96875,38.1,0.,3.96875,38.1,5.,     109P    193
3.96875,42.06875,0.,3.96875,42.06875,5.,0.,42.06875,0.,0.,           109P    194
42.06875,5.,-3.96875,42.06875,0.,-3.96875,42.06875,5.,-3.96875,      109P    195
38.1,0.,-3.96875,38.1,5.,0.,1.25984251968504,-3.14159265358979,      109P    196
3.14159265358979;                                                    109P    197
128,1,8,1,2,0,1,0,0,1,0.,0.,1.25984251968504,1.25984251968504,       111P    198
-3.14159265358979,-3.14159265358979,-3.14159265358979,               111P    199
-1.5707963267949,-1.5707963267949,0.,0.,1.5707963267949,             111P    200
1.5707963267949,3.14159265358979,3.14159265358979,                   111P    201
3.14159265358979,1.,1.,0.707106781186548,0.707106781186548,1.,       111P    202
1.,0.707106781186548,0.707106781186548,1.,1.,0.707106781186548,      111P    203
0.707106781186548,1.,1.,0.707106781186548,0.707106781186548,1.,      111P    204
1.,33.5524253897651,6.61599556911003,0.,33.5524253897651,            111P    205
6.61599556911003,5.,33.5524253897651,2.64724556911003,0.,            111P    206
33.5524253897651,2.64724556911003,5.,37.5211753897651,               111P    207
2.64724556911003,0.,37.5211753897651,2.64724556911003,5.,            111P    208
41.4899253897651,2.64724556911003,0.,41.4899253897651,               111P    209
2.64724556911003,5.,41.4899253897651,6.61599556911003,0.,            111P    210
41.4899253897651,6.61599556911003,5.,41.4899253897651,               111P    211
10.58474556911,0.,41.4899253897651,10.58474556911,5.,                111P    212
37.5211753897651,10.58474556911,0.,37.5211753897651,                 111P    213
10.58474556911,5.,33.5524253897651,10.58474556911,0.,                111P    214
33.5524253897651,10.58474556911,5.,33.5524253897651,                 111P    215
6.61599556911003,0.,33.5524253897651,6.61599556911003,5.,0.,         111P    216
1.25984251968504,-3.14159265358979,3.14159265358979;                 111P    217
128,1,8,1,2,0,1,0,0,1,0.,0.,1.25984251968504,1.25984251968504,       113P    218
-3.14159265358979,-3.14159265358979,-3.14159265358979,               113P    219
-1.5707963267949,-1.5707963267949,0.,0.,1.5707963267949,             113P    220
1.5707963267949,3.14159265358979,3.14159265358979,                   113P    221
3.14159265358979,1.,1.,0.707106781186548,0.707106781186548,1.,       113P    222
1.,0.707106781186548,0.707106781186548,1.,1.,0.707106781186548,      113P    223
0.707106781186548,1.,1.,0.707106781186548,0.707106781186548,1.,      113P    224
1.,20.5214579290572,29.1862932828331,0.,20.5214579290572,            113P    225
29.1862932828331,5.,20.5214579290572,25.2175432828331,0.,            113P    226
20.5214579290572,25.2175432828331,5.,24.4902079290572,               113P    227
25.2175432828331,0.,24.4902079290572,25.2175432828331,5.,            113P    228
28.4589579290572,25.2175432828331,0.,28.4589579290572,               113P    229
25.2175432828331,5.,28.4589579290572,29.1862932828331,0.,            113P    230
28.4589579290572,29.1862932828331,5.,28.4589579290572,               113P    231
33.1550432828331,0.,28.4589579290572,33.1550432828331,5.,            113P    232
24.4902079290572,33.1550432828331,0.,24.4902079290572,               113P    233
33.1550432828331,5.,20.5214579290572,33.1550432828331,0.,            113P    234
20.5214579290572,33.1550432828331,5.,20.5214579290572,               113P    235
29.1862932828331,0.,20.5214579290572,29.1862932828331,5.,0.,         113P    236
1.25984251968504,-3.14159265358979,3.14159265358979;                 113P    237
128,1,8,1,2,0,1,0,0,1,0.,0.,1.25984251968504,1.25984251968504,       115P    238
-3.14159265358979,-3.14159265358979,-3.14159265358979,               115P    239
-1.5707963267949,-1.5707963267949,0.,0.,1.5707963267949,             115P    240
1.5707963267949,3.14159265358979,3.14159265358979,                   115P    241
3.14159265358979,1.,1.,0.707106781186548,0.707106781186548,1.,       115P    242
1.,0.707106781186548,0.707106781186548,1.,1.,0.707106781186548,      115P    243
0.707106781186548,1.,1.,0.707106781186548,0.707106781186548,1.,      115P    244
1.,-28.4589579290571,29.1862932828331,0.,-28.4589579290571,          115P    245
29.1862932828331,5.,-28.4589579290571,25.2175432828331,0.,           115P    246
-28.4589579290571,25.2175432828331,5.,-24.4902079290571,             115P    247
25.2175432828331,0.,-24.4902079290571,25.2175432828331,5.,           115P    248
-20.5214579290571,25.2175432828331,0.,-20.5214579290571,             115P    249
25.2175432828331,5.,-20.5214579290571,29.1862932828331,0.,           115P    250
-20.5214579290571,29.1862932828331,5.,-20.5214579290571,             115P    251
33.1550432828331,0.,-20.5214579290571,33.1550432828331,5.,           115P    252
-24.4902079290571,33.1550432828331,0.,-24.4902079290571,             115P    253
33.1550432828331,5.,-28.4589579290571,33.1550432828331,0.,           115P    254
-28.4589579290571,33.1550432828331,5.,-28.4589579290571,             115P    255
29.1862932828331,0.,-28.4589579290571,29.1862932828331,5.,0.,        115P    256
1.25984251968504,-3.14159265358979,3.14159265358979;                 115P    257
128,1,1,1,1,0,0,1,0,0,-0.001,-0.001,1.906,1.906,-0.001,-0.001,       117P    258
0.501,0.501,1.,1.,1.,1.,-41.2531201092717,23.8175,-0.01,             117P    259
-24.7380156591025,14.2825,-0.01,-41.2531201092717,23.8175,5.01,      117P    260
-24.7380156591025,14.2825,5.01,-0.001,1.906,-0.001,0.501;            117P    261
128,1,4,1,2,0,0,0,0,0,0.,0.,0.10498687664042,0.10498687664042,       119P    262
-0.174532925199433,-0.174532925199433,-0.174532925199433,            119P    263
1.22173047639603,1.22173047639603,2.61799387799149,                  119P    264
2.61799387799149,2.61799387799149,1.,1.,0.766044443118978,           119P    265
0.766044443118978,1.,1.,0.766044443118978,0.766044443118978,1.,      119P    266
1.,46.9014692372064,-8.26999446138758,5.,46.9014692372064,           119P    267
-8.26999446138758,0.,53.8408185395949,31.0850110772249,5.,           119P    268
53.8408185395949,31.0850110772249,0.,16.288709325885,                119P    269
44.7528610649289,5.,16.288709325885,44.7528610649289,0.,             119P    270
-21.2633998878249,58.4207110526329,5.,-21.2633998878249,             119P    271
58.4207110526329,0.,-41.2444598552339,23.8125,5.,                    119P    272
-41.2444598552339,23.8125,0.,0.,0.10498687664042,                    119P    273
-0.174532925199433,2.61799387799149;                                 119P    274
128,1,1,1,1,0,0,1,0,0,-0.001,-0.001,1.906,1.906,-0.001,-0.001,       121P    275
0.501,0.501,1.,1.,1.,1.,28.1310334647937,-4.96026019505588,          121P    276
-0.01,46.9113173147365,-8.27173094316425,-0.01,28.1310334647937,     121P    277
-4.96026019505588,5.01,46.9113173147365,-8.27173094316425,5.01,      121P    278
-0.001,1.906,-0.001,0.501;                                           121P    279
128,1,4,1,2,0,0,0,0,0,0.,0.,0.174978127734033,0.174978127734033,     123P    280
-0.174532925199433,-0.174532925199433,-0.174532925199433,            123P    281
1.22173047639603,1.22173047639603,2.61799387799149,                  123P    282
2.61799387799149,2.61799387799149,1.,1.,0.766044443118978,           123P    283
0.766044443118978,1.,1.,0.766044443118978,0.766044443118978,1.,      123P    284
1.,28.1408815423238,-4.96199667683255,0.,28.1408815423238,           123P    285
-4.96199667683255,5.,32.3044911237569,18.6510066463349,0.,           123P    286
32.3044911237569,18.6510066463349,5.,9.77322559553098,               123P    287
26.8517166389573,0.,9.77322559553098,26.8517166389573,5.,            123P    288
-12.758039932695,35.0524266315797,0.,-12.758039932695,               123P    289
35.0524266315797,5.,-24.7466759131403,14.2875,0.,                    123P    290
-24.7466759131403,14.2875,5.,0.,0.174978127734033,                   123P    291
-0.174532925199433,2.61799387799149;                                 123P    292
128,1,1,1,1,0,0,1,0,0,-4.12544598552339,-4.12544598552339,           125P    293
5.38508185395949,5.38508185395949,-0.827999446138758,                125P    294
-0.827999446138758,5.84307110526329,5.84307110526329,1.,1.,1.,       125P    295
1.,-41.2544598552339,-8.27999446138758,5.,53.8508185395949,          125P    296
-8.27999446138758,5.,-41.2544598552339,58.4307110526329,5.,          125P    297
53.8508185395949,58.4307110526329,5.,-4.12544598552339,              125P    298
5.38508185395949,-0.827999446138758,5.84307110526329;                125P    299
128,1,1,1,1,0,0,1,0,0,-4.12544598552339,-4.12544598552339,           127P    300
5.38508185395949,5.38508185395949,-0.827999446138758,                127P    301
-0.827999446138758,5.84307110526329,5.84307110526329,1.,1.,1.,       127P    302
1.,53.8508185395949,-8.27999446138758,0.,-41.2544598552339,          127P    303
-8.27999446138758,0.,53.8508185395949,58.4307110526329,0.,           127P    304
-41.2544598552339,58.4307110526329,0.,-4.12544598552339,             127P    305
5.38508185395949,-0.827999446138758,5.84307110526329;                127P    306
502,16,-3.96875,38.1,5.,-3.96875,38.1,0.,33.5524253897651,           129P    307
6.61599556911003,5.,33.5524253897651,6.61599556911003,0.,            129P    308
20.5214579290572,29.1862932828331,5.,20.5214579290572,               129P    309
29.1862932828331,0.,-28.4589579290571,29.1862932828331,5.,           129P    310
-28.4589579290571,29.1862932828331,0.,-24.7466759131403,14.2875,     129P    311
0.,-41.2444598552339,23.8125,0.,-24.7466759131403,14.2875,5.,        129P    312
-41.2444598552339,23.8125,5.,46.9014692372064,-8.26999446138758,     129P    313
0.,46.9014692372064,-8.26999446138758,5.,28.1408815423238,           129P    314
-4.96199667683255,0.,28.1408815423238,-4.96199667683255,5.;          129P    315
504,24,61,129,1,129,1,63,129,1,129,2,65,129,2,129,2,67,129,3,        131P    316
129,3,69,129,3,129,4,71,129,4,129,4,73,129,5,129,5,75,129,5,129,     131P    317
6,77,129,6,129,6,79,129,7,129,7,81,129,7,129,8,83,129,8,129,8,       131P    318
85,129,9,129,10,87,129,9,129,11,89,129,12,129,11,91,129,10,129,      131P    319
12,93,129,13,129,10,95,129,14,129,12,97,129,13,129,14,99,129,15,     131P    320
129,13,101,129,16,129,14,103,129,15,129,16,105,129,15,129,9,107,     131P    321
129,11,129,16;                                                       131P    322
406,1,29HSpacer 0.75in - 4 Holes - 5mm;                              133P    323
314,62.7450980392157,62.7450980392157,62.7450980392157,13HSteel      135P    324
- Satin;                                                             135P    325
S      1G      3D    136P    325                                        T      1
