                                                                        S      1
,,26HSpacer 1in - 5 Holes - 1mm,26HSpacer 1in - 5 Holes - 1mm,7Hunknown,G      1
7Hunknown,32,38,7,99,15,,1.,2,2HMM,1,0.08,15H20230522.221417,0.01,      G      2
10000.,7Hunknown,7Hunknown,11,0,;                                       G      3
     186       1                                                00000000D      1
     186            -151       1       0                               0D      2
     514       2                                                00010000D      3
     514                       1       1                               0D      4
     510       3                                                00010000D      5
     510            -151       1       1                               0D      6
     510       4                                                00010000D      7
     510            -151       1       1                               0D      8
     510       5                                                00010000D      9
     510            -151       1       1                               0D     10
     510       6                                                00010000D     11
     510            -151       1       1                               0D     12
     510       7                                                00010000D     13
     510            -151       1       1                               0D     14
     510       8                                                00010000D     15
     510            -151       1       1                               0D     16
     510       9                                                00010000D     17
     510            -151       1       1                               0D     18
     510      10                                                00010000D     19
     510            -151       1       1                               0D     20
     510      11                                                00010000D     21
     510            -151       1       1                               0D     22
     510      12                                                00010000D     23
     510            -151       1       1                               0D     24
     510      13                                                00010000D     25
     510            -151       1       1                               0D     26
     508      14                                                00010000D     27
     508                       1       1                               0D     28
     508      15                                                00010000D     29
     508                       1       1                               0D     30
     508      16                                                00010000D     31
     508                       1       1                               0D     32
     508      17                                                00010000D     33
     508                       1       1                               0D     34
     508      18                                                00010000D     35
     508                       1       1                               0D     36
     508      19                                                00010000D     37
     508                       1       1                               0D     38
     508      20                                                00010000D     39
     508                       1       1                               0D     40
     508      21                                                00010000D     41
     508                       1       1                               0D     42
     508      22                                                00010000D     43
     508                       1       1                               0D     44
     508      23                                                00010000D     45
     508                       1       1                               0D     46
     508      24                                                00010000D     47
     508                       1       1                               0D     48
     508      25                                                00010000D     49
     508                       1       1                               0D     50
     508      26                                                00010000D     51
     508                       1       1                               0D     52
     508      27                                                00010000D     53
     508                       1       1                               0D     54
     508      28                                                00010000D     55
     508                       1       1                               0D     56
     508      29                                                00010000D     57
     508                       1       1                               0D     58
     508      30                                                00010000D     59
     508                       1       1                               0D     60
     508      31                                                00010000D     61
     508                       1       1                               0D     62
     508      32                                                00010000D     63
     508                       1       1                               0D     64
     508      33                                                00010000D     65
     508                       1       1                               0D     66
     508      34                                                00010000D     67
     508                       1       1                               0D     68
     126      35                                                00010000D     69
     126       0              12       0                               0D     70
     126      47                                                00010000D     71
     126       0               3       0                               0D     72
     126      50                                                00010000D     73
     126       0              12       0                               0D     74
     126      62                                                00010000D     75
     126       0              12       0                               0D     76
     126      74                                                00010000D     77
     126       0               3       0                               0D     78
     126      77                                                00010000D     79
     126       0              12       0                               0D     80
     126      89                                                00010000D     81
     126       0              11       0                               0D     82
     126     100                                                00010000D     83
     126       0               3       0                               0D     84
     126     103                                                00010000D     85
     126       0              11       0                               0D     86
     126     114                                                00010000D     87
     126       0              11       0                               0D     88
     126     125                                                00010000D     89
     126       0               3       0                               0D     90
     126     128                                                00010000D     91
     126       0              11       0                               0D     92
     126     139                                                00010000D     93
     126       0              12       0                               0D     94
     126     151                                                00010000D     95
     126       0               3       0                               0D     96
     126     154                                                00010000D     97
     126       0              12       0                               0D     98
     126     166                                                00010000D     99
     126       0               3       0                               0D    100
     126     169                                                00010000D    101
     126       0               3       0                               0D    102
     126     172                                                00010000D    103
     126       0               3       0                               0D    104
     126     175                                                00010000D    105
     126       0               3       0                               0D    106
     126     178                                                00010000D    107
     126       0              10       0                               0D    108
     126     188                                                00010000D    109
     126       0              10       0                               0D    110
     126     198                                                00010000D    111
     126       0               2       0                               0D    112
     126     200                                                00010000D    113
     126       0               2       0                               0D    114
     126     202                                                00010000D    115
     126       0               2       0                               0D    116
     126     204                                                00010000D    117
     126       0               2       0                               0D    118
     126     206                                                00010000D    119
     126       0              10       0                               0D    120
     126     216                                                00010000D    121
     126       0              10       0                               0D    122
     128     226                                                00010000D    123
     128       0    -151      20       0                               0D    124
     128     246                                                00010000D    125
     128       0    -151      20       0                               0D    126
     128     266                                                00010000D    127
     128       0    -151      17       0                               0D    128
     128     283                                                00010000D    129
     128       0    -151      17       0                               0D    130
     128     300                                                00010000D    131
     128       0    -151      20       0                               0D    132
     128     320                                                00010000D    133
     128       0    -151       5       0                               0D    134
     128     325                                                00010000D    135
     128       0    -151      17       0                               0D    136
     128     342                                                00010000D    137
     128       0    -151       4       0                               0D    138
     128     346                                                00010000D    139
     128       0    -151      17       0                               0D    140
     128     363                                                00010000D    141
     128       0    -151       6       0                               0D    142
     128     369                                                00010000D    143
     128       0    -151       6       0                               0D    144
     502     375                                                00010000D    145
     502                      11       1                               0D    146
     504     386                                                00010001D    147
     504                       8       1                               0D    148
     406     394                                                00000000D    149
     406                       1      15                               0D    150
     314     395                                                00000200D    151
     314                       2       0                               0D    152
186,3,1,0,0,1,149;                                                     1P      1
514,11,5,1,7,1,9,1,11,1,13,1,15,1,17,1,19,1,21,1,23,1,25,1;            3P      2
510,123,1,1,27;                                                        5P      3
510,125,1,1,29;                                                        7P      4
510,127,1,1,31;                                                        9P      5
510,129,1,1,33;                                                       11P      6
510,131,1,1,35;                                                       13P      7
510,133,1,1,37;                                                       15P      8
510,135,1,1,39;                                                       17P      9
510,137,1,1,41;                                                       19P     10
510,139,1,1,43;                                                       21P     11
510,141,6,1,45,47,49,51,53,55;                                        23P     12
510,143,6,1,57,59,61,63,65,67;                                        25P     13
508,4,0,147,1,0,0,0,147,2,1,0,0,147,3,0,0,0,147,2,0,0;                27P     14
508,4,0,147,4,0,0,0,147,5,1,0,0,147,6,0,0,0,147,5,0,0;                29P     15
508,4,0,147,7,0,0,0,147,8,1,0,0,147,9,0,0,0,147,8,0,0;                31P     16
508,4,0,147,10,0,0,0,147,11,1,0,0,147,12,0,0,0,147,11,0,0;            33P     17
508,4,0,147,13,0,0,0,147,14,1,0,0,147,15,0,0,0,147,14,0,0;            35P     18
508,4,0,147,16,0,0,0,147,17,1,0,0,147,18,0,0,0,147,19,0,0;            37P     19
508,4,0,147,20,1,0,0,147,19,1,0,0,147,21,0,0,0,147,22,0,0;            39P     20
508,4,0,147,23,1,0,0,147,22,1,0,0,147,24,0,0,0,147,25,0,0;            41P     21
508,4,0,147,26,0,0,0,147,25,1,0,0,147,27,0,0,0,147,17,0,0;            43P     22
508,4,0,147,27,1,0,0,147,24,1,0,0,147,21,1,0,0,147,18,1,0;            45P     23
508,1,0,147,13,1,0;                                                   47P     24
508,1,0,147,10,1,0;                                                   49P     25
508,1,0,147,7,1,0;                                                    51P     26
508,1,0,147,4,1,0;                                                    53P     27
508,1,0,147,1,1,0;                                                    55P     28
508,4,0,147,26,1,0,0,147,16,1,0,0,147,20,0,0,0,147,23,0,0;            57P     29
508,1,0,147,15,1,0;                                                   59P     30
508,1,0,147,12,1,0;                                                   61P     31
508,1,0,147,9,1,0;                                                    63P     32
508,1,0,147,6,1,0;                                                    65P     33
508,1,0,147,3,1,0;                                                    67P     34
126,8,2,0,1,0,0,-3.14159265358979,-3.14159265358979,                  69P     35
-3.14159265358979,-1.5707963267949,-1.5707963267949,0.,0.,            69P     36
1.5707963267949,1.5707963267949,3.14159265358979,                     69P     37
3.14159265358979,3.14159265358979,1.,0.707106781186546,1.,            69P     38
0.707106781186546,1.,0.707106781186546,1.,0.707106781186546,1.,       69P     39
-16.999717460708,-35.8022888519431,1.,-16.999717460708,               69P     40
-31.8335388519431,1.,-13.030967460708,-31.8335388519431,1.,           69P     41
-9.06221746070798,-31.8335388519431,1.,-9.06221746070798,             69P     42
-35.8022888519431,1.,-9.06221746070798,-39.7710388519431,1.,          69P     43
-13.030967460708,-39.7710388519431,1.,-16.999717460708,               69P     44
-39.7710388519431,1.,-16.999717460708,-35.8022888519431,1.,           69P     45
-3.14159265358979,3.14159265358979,0.,0.,0.;                          69P     46
126,1,1,0,0,1,0,-0.251968503937008,-0.251968503937008,0.,0.,1.,       71P     47
1.,-16.999717460708,-35.8022888519431,1.,-16.999717460708,            71P     48
-35.8022888519431,0.,-0.251968503937008,0.,0.,0.,0.;                  71P     49
126,8,2,0,1,0,0,-3.14159265358979,-3.14159265358979,                  73P     50
-3.14159265358979,-1.5707963267949,-1.5707963267949,0.,0.,            73P     51
1.5707963267949,1.5707963267949,3.14159265358979,                     73P     52
3.14159265358979,3.14159265358979,1.,0.707106781186546,1.,            73P     53
0.707106781186546,1.,0.707106781186546,1.,0.707106781186546,1.,       73P     54
-16.999717460708,-35.8022888519431,0.,-16.999717460708,               73P     55
-39.7710388519431,0.,-13.030967460708,-39.7710388519431,0.,           73P     56
-9.06221746070798,-39.7710388519431,0.,-9.06221746070798,             73P     57
-35.8022888519431,0.,-9.06221746070798,-31.8335388519431,0.,          73P     58
-13.030967460708,-31.8335388519431,0.,-16.999717460708,               73P     59
-31.8335388519431,0.,-16.999717460708,-35.8022888519431,0.,           73P     60
-3.14159265358979,3.14159265358979,0.,0.,0.;                          73P     61
126,8,2,0,1,0,0,-3.14159265358979,-3.14159265358979,                  75P     62
-3.14159265358979,-1.5707963267949,-1.5707963267949,0.,0.,            75P     63
1.5707963267949,1.5707963267949,3.14159265358979,                     75P     64
3.14159265358979,3.14159265358979,1.,0.707106781186545,1.,            75P     65
0.707106781186546,1.,0.707106781186546,1.,0.707106781186545,1.,       75P     66
9.06221746070798,-35.8022888519431,1.,9.06221746070798,               75P     67
-31.8335388519431,1.,13.030967460708,-31.8335388519431,1.,            75P     68
16.999717460708,-31.8335388519431,1.,16.999717460708,                 75P     69
-35.8022888519431,1.,16.999717460708,-39.7710388519431,1.,            75P     70
13.030967460708,-39.7710388519431,1.,9.06221746070798,                75P     71
-39.7710388519431,1.,9.06221746070798,-35.8022888519431,1.,           75P     72
-3.14159265358979,3.14159265358979,0.,0.,0.;                          75P     73
126,1,1,0,0,1,0,-0.251968503937008,-0.251968503937008,0.,0.,1.,       77P     74
1.,9.06221746070798,-35.8022888519431,1.,9.06221746070798,            77P     75
-35.8022888519431,0.,-0.251968503937008,0.,0.,0.,0.;                  77P     76
126,8,2,0,1,0,0,-3.14159265358979,-3.14159265358979,                  79P     77
-3.14159265358979,-1.5707963267949,-1.5707963267949,0.,0.,            79P     78
1.5707963267949,1.5707963267949,3.14159265358979,                     79P     79
3.14159265358979,3.14159265358979,1.,0.707106781186545,1.,            79P     80
0.707106781186546,1.,0.707106781186546,1.,0.707106781186545,1.,       79P     81
9.06221746070798,-35.8022888519431,0.,9.06221746070798,               79P     82
-39.7710388519431,0.,13.030967460708,-39.7710388519431,0.,            79P     83
16.999717460708,-39.7710388519431,0.,16.999717460708,                 79P     84
-35.8022888519431,0.,16.999717460708,-31.8335388519431,0.,            79P     85
13.030967460708,-31.8335388519431,0.,9.06221746070798,                79P     86
-31.8335388519431,0.,9.06221746070798,-35.8022888519431,0.,           79P     87
-3.14159265358979,3.14159265358979,0.,0.,0.;                          79P     88
126,8,2,0,1,0,0,-3.14159265358979,-3.14159265358979,                  81P     89
-3.14159265358979,-1.5707963267949,-1.5707963267949,0.,0.,            81P     90
1.5707963267949,1.5707963267949,3.14159265358979,                     81P     91
3.14159265358979,3.14159265358979,1.,0.707106781186548,1.,            81P     92
0.707106781186548,1.,0.707106781186549,1.,0.707106781186549,1.,       81P     93
29.0268178841871,-19.05,1.,29.0268178841871,-15.08125,1.,             81P     94
32.9955678841871,-15.08125,1.,36.9643178841871,-15.08125,1.,          81P     95
36.9643178841871,-19.05,1.,36.9643178841871,-23.01875,1.,             81P     96
32.9955678841871,-23.01875,1.,29.0268178841871,-23.01875,1.,          81P     97
29.0268178841871,-19.05,1.,-3.14159265358979,3.14159265358979,        81P     98
0.,0.,0.;                                                             81P     99
126,1,1,0,0,1,0,-0.251968503937008,-0.251968503937008,0.,0.,1.,       83P    100
1.,29.0268178841871,-19.05,1.,29.0268178841871,-19.05,0.,             83P    101
-0.251968503937008,0.,0.,0.,0.;                                       83P    102
126,8,2,0,1,0,0,-3.14159265358979,-3.14159265358979,                  85P    103
-3.14159265358979,-1.5707963267949,-1.5707963267949,0.,0.,            85P    104
1.5707963267949,1.5707963267949,3.14159265358979,                     85P    105
3.14159265358979,3.14159265358979,1.,0.707106781186549,1.,            85P    106
0.707106781186549,1.,0.707106781186548,1.,0.707106781186548,1.,       85P    107
29.0268178841871,-19.05,0.,29.0268178841871,-23.01875,0.,             85P    108
32.9955678841871,-23.01875,0.,36.9643178841871,-23.01875,0.,          85P    109
36.9643178841871,-19.05,0.,36.9643178841871,-15.08125,0.,             85P    110
32.9955678841871,-15.08125,0.,29.0268178841871,-15.08125,0.,          85P    111
29.0268178841871,-19.05,0.,-3.14159265358979,3.14159265358979,        85P    112
0.,0.,0.;                                                             85P    113
126,8,2,0,1,0,0,-3.14159265358979,-3.14159265358979,                  87P    114
-3.14159265358979,-1.5707963267949,-1.5707963267949,0.,0.,            87P    115
1.5707963267949,1.5707963267949,3.14159265358979,                     87P    116
3.14159265358979,3.14159265358979,1.,0.707106781186548,1.,            87P    117
0.707106781186548,1.,0.707106781186549,1.,0.707106781186549,1.,       87P    118
-36.9643178841871,-19.05,1.,-36.9643178841871,-15.08125,1.,           87P    119
-32.9955678841871,-15.08125,1.,-29.0268178841871,-15.08125,1.,        87P    120
-29.0268178841871,-19.05,1.,-29.0268178841871,-23.01875,1.,           87P    121
-32.9955678841871,-23.01875,1.,-36.9643178841871,-23.01875,1.,        87P    122
-36.9643178841871,-19.05,1.,-3.14159265358979,3.14159265358979,       87P    123
0.,0.,0.;                                                             87P    124
126,1,1,0,0,1,0,-0.251968503937008,-0.251968503937008,0.,0.,1.,       89P    125
1.,-36.9643178841871,-19.05,1.,-36.9643178841871,-19.05,0.,           89P    126
-0.251968503937008,0.,0.,0.,0.;                                       89P    127
126,8,2,0,1,0,0,-3.14159265358979,-3.14159265358979,                  91P    128
-3.14159265358979,-1.5707963267949,-1.5707963267949,0.,0.,            91P    129
1.5707963267949,1.5707963267949,3.14159265358979,                     91P    130
3.14159265358979,3.14159265358979,1.,0.707106781186549,1.,            91P    131
0.707106781186549,1.,0.707106781186548,1.,0.707106781186548,1.,       91P    132
-36.9643178841871,-19.05,0.,-36.9643178841871,-23.01875,0.,           91P    133
-32.9955678841871,-23.01875,0.,-29.0268178841871,-23.01875,0.,        91P    134
-29.0268178841871,-19.05,0.,-29.0268178841871,-15.08125,0.,           91P    135
-32.9955678841871,-15.08125,0.,-36.9643178841871,-15.08125,0.,        91P    136
-36.9643178841871,-19.05,0.,-3.14159265358979,3.14159265358979,       91P    137
0.,0.,0.;                                                             91P    138
126,8,2,0,1,0,0,-3.14159265358979,-3.14159265358979,                  93P    139
-3.14159265358979,-1.5707963267949,-1.5707963267949,0.,0.,            93P    140
1.5707963267949,1.5707963267949,3.14159265358979,                     93P    141
3.14159265358979,3.14159265358979,1.,0.707106781186548,1.,            93P    142
0.707106781186548,1.,0.707106781186549,1.,0.707106781186549,1.,       93P    143
-41.4899253897651,6.61599556911005,1.,-41.4899253897651,              93P    144
10.5847455691101,1.,-37.5211753897651,10.5847455691101,1.,            93P    145
-33.5524253897651,10.5847455691101,1.,-33.5524253897651,              93P    146
6.61599556911005,1.,-33.5524253897651,2.64724556911005,1.,            93P    147
-37.5211753897651,2.64724556911005,1.,-41.4899253897651,              93P    148
2.64724556911005,1.,-41.4899253897651,6.61599556911005,1.,            93P    149
-3.14159265358979,3.14159265358979,0.,0.,0.;                          93P    150
126,1,1,0,0,1,0,-0.251968503937008,-0.251968503937008,0.,0.,1.,       95P    151
1.,-41.4899253897651,6.61599556911005,1.,-41.4899253897651,           95P    152
6.61599556911005,0.,-0.251968503937008,0.,0.,0.,0.;                   95P    153
126,8,2,0,1,0,0,-3.14159265358979,-3.14159265358979,                  97P    154
-3.14159265358979,-1.5707963267949,-1.5707963267949,0.,0.,            97P    155
1.5707963267949,1.5707963267949,3.14159265358979,                     97P    156
3.14159265358979,3.14159265358979,1.,0.707106781186549,1.,            97P    157
0.707106781186549,1.,0.707106781186548,1.,0.707106781186548,1.,       97P    158
-41.4899253897651,6.61599556911005,0.,-41.4899253897651,              97P    159
2.64724556911005,0.,-37.5211753897651,2.64724556911005,0.,            97P    160
-33.5524253897651,2.64724556911005,0.,-33.5524253897651,              97P    161
6.61599556911005,0.,-33.5524253897651,10.5847455691101,0.,            97P    162
-37.5211753897651,10.5847455691101,0.,-41.4899253897651,              97P    163
10.5847455691101,0.,-41.4899253897651,6.61599556911005,0.,            97P    164
-3.14159265358979,3.14159265358979,0.,0.,0.;                          97P    165
126,1,1,0,0,1,0,0.,0.,2.54,2.54,1.,1.,25.0141169265101,               99P    166
-4.41066371274004,0.,50.0282338530202,-8.82132742548009,0.,0.,        99P    167
2.54,0.,0.,0.;                                                        99P    168
126,1,1,0,0,1,0,0.,0.,0.1,0.1,1.,1.,25.0141169265101,                101P    169
-4.41066371274004,0.,25.0141169265101,-4.41066371274004,1.,0.,       101P    170
0.1,0.,0.,0.;                                                        101P    171
126,1,1,0,0,1,0,-2.54,-2.54,0.,0.,1.,1.,50.0282338530202,            103P    172
-8.82132742548009,1.,25.0141169265101,-4.41066371274004,1.,          103P    173
-2.54,0.,0.,0.,0.;                                                   103P    174
126,1,1,0,0,1,0,0.,0.,0.1,0.1,1.,1.,50.0282338530202,                105P    175
-8.82132742548009,0.,50.0282338530202,-8.82132742548009,1.,0.,       105P    176
0.1,0.,0.,0.;                                                        105P    177
126,6,2,0,0,0,0,2.61799387799149,2.61799387799149,                   107P    178
2.61799387799149,3.78154671265438,3.78154671265438,                  107P    179
4.94509954731727,4.94509954731727,6.10865238198015,                  107P    180
6.10865238198015,6.10865238198015,1.,0.835487811412936,1.,           107P    181
0.835487811412937,1.,0.835487811412937,1.,-43.9940905122495,         107P    182
25.4,0.,-60.6999333172979,-3.53536852160289,0.,                      107P    183
-40.7478581919562,-30.3356564585015,0.,-20.7957830666145,            107P    184
-57.1359443954002,0.,11.7152862337159,-49.4306794254551,0.,          107P    185
44.2263555340464,-41.7254144555099,0.,50.0282338530202,              107P    186
-8.82132742548011,0.,2.61799387799149,6.10865238198015,0.,0.,0.;     107P    187
126,6,2,0,0,0,0,2.61799387799149,2.61799387799149,                   109P    188
2.61799387799149,3.78154671265438,3.78154671265438,                  109P    189
4.94509954731727,4.94509954731727,6.10865238198015,                  109P    190
6.10865238198015,6.10865238198015,1.,0.835487811412936,1.,           109P    191
0.835487811412937,1.,0.835487811412937,1.,-43.9940905122495,         109P    192
25.4,1.,-60.6999333172979,-3.53536852160289,1.,                      109P    193
-40.7478581919562,-30.3356564585015,1.,-20.7957830666145,            109P    194
-57.1359443954002,1.,11.7152862337159,-49.4306794254551,1.,          109P    195
44.2263555340464,-41.7254144555099,1.,50.0282338530202,              109P    196
-8.82132742548011,1.,2.61799387799149,6.10865238198015,0.,0.,0.;     109P    197
126,1,1,0,0,1,0,0.,0.,0.1,0.1,1.,1.,-43.9940905122495,25.4,0.,       111P    198
-43.9940905122495,25.4,1.,0.,0.1,0.,0.,0.;                           111P    199
126,1,1,0,0,1,0,0.,0.,2.54,2.54,1.,1.,-21.9970452561247,12.7,0.,     113P    200
-43.9940905122495,25.4,0.,0.,2.54,0.,0.,0.;                          113P    201
126,1,1,0,0,1,0,0.,0.,2.54,2.54,1.,1.,-21.9970452561247,12.7,1.,     115P    202
-43.9940905122495,25.4,1.,0.,2.54,0.,0.,0.;                          115P    203
126,1,1,0,0,1,0,0.,0.,0.1,0.1,1.,1.,-21.9970452561247,12.7,0.,       117P    204
-21.9970452561247,12.7,1.,0.,0.1,0.,0.,0.;                           117P    205
126,6,2,0,0,0,0,2.61799387799149,2.61799387799149,                   119P    206
2.61799387799149,3.78154671265438,3.78154671265438,                  119P    207
4.94509954731727,4.94509954731727,6.10865238198015,                  119P    208
6.10865238198015,6.10865238198015,1.,0.835487811412936,1.,           119P    209
0.835487811412936,1.,0.835487811412937,1.,-21.9970452561248,         119P    210
12.7,0.,-30.349966658649,-1.76768426080145,0.,-20.3739290959781,     119P    211
-15.1678282292508,0.,-10.3978915333073,-28.5679721977001,0.,         119P    212
5.85764311685797,-24.7153397127275,0.,22.1131777670232,              119P    213
-20.862707227755,0.,25.0141169265101,-4.41066371274005,0.,           119P    214
2.61799387799149,6.10865238198015,0.,0.,0.;                          119P    215
126,6,2,0,0,0,0,-6.10865238198015,-6.10865238198015,                 121P    216
-6.10865238198015,-4.94509954731727,-4.94509954731727,               121P    217
-3.78154671265438,-3.78154671265438,-2.61799387799149,               121P    218
-2.61799387799149,-2.61799387799149,1.,0.835487811412937,1.,         121P    219
0.835487811412936,1.,0.835487811412936,1.,25.0141169265101,          121P    220
-4.41066371274005,1.,22.1131777670232,-20.862707227755,1.,           121P    221
5.85764311685797,-24.7153397127275,1.,-10.3978915333073,             121P    222
-28.5679721977001,1.,-20.3739290959781,-15.1678282292508,1.,         121P    223
-30.349966658649,-1.76768426080145,1.,-21.9970452561248,12.7,1.,     121P    224
-6.10865238198015,-2.61799387799149,0.,0.,0.;                        121P    225
128,1,8,1,2,0,1,0,0,1,0.,0.,0.251968503937008,0.251968503937008,     123P    226
-3.14159265358979,-3.14159265358979,-3.14159265358979,               123P    227
-1.5707963267949,-1.5707963267949,0.,0.,1.5707963267949,             123P    228
1.5707963267949,3.14159265358979,3.14159265358979,                   123P    229
3.14159265358979,1.,1.,0.707106781186548,0.707106781186548,1.,       123P    230
1.,0.707106781186548,0.707106781186548,1.,1.,0.707106781186548,      123P    231
0.707106781186548,1.,1.,0.707106781186548,0.707106781186548,1.,      123P    232
1.,-16.999717460708,-35.8022888519431,0.,-16.999717460708,           123P    233
-35.8022888519431,1.,-16.999717460708,-39.7710388519431,0.,          123P    234
-16.999717460708,-39.7710388519431,1.,-13.030967460708,              123P    235
-39.7710388519431,0.,-13.030967460708,-39.7710388519431,1.,          123P    236
-9.06221746070799,-39.7710388519431,0.,-9.06221746070799,            123P    237
-39.7710388519431,1.,-9.06221746070798,-35.8022888519431,0.,         123P    238
-9.06221746070798,-35.8022888519431,1.,-9.06221746070799,            123P    239
-31.8335388519431,0.,-9.06221746070799,-31.8335388519431,1.,         123P    240
-13.030967460708,-31.8335388519431,0.,-13.030967460708,              123P    241
-31.8335388519431,1.,-16.999717460708,-31.8335388519431,0.,          123P    242
-16.999717460708,-31.8335388519431,1.,-16.999717460708,              123P    243
-35.8022888519431,0.,-16.999717460708,-35.8022888519431,1.,0.,       123P    244
0.251968503937008,-3.14159265358979,3.14159265358979;                123P    245
128,1,8,1,2,0,1,0,0,1,0.,0.,0.251968503937008,0.251968503937008,     125P    246
-3.14159265358979,-3.14159265358979,-3.14159265358979,               125P    247
-1.5707963267949,-1.5707963267949,0.,0.,1.5707963267949,             125P    248
1.5707963267949,3.14159265358979,3.14159265358979,                   125P    249
3.14159265358979,1.,1.,0.707106781186548,0.707106781186548,1.,       125P    250
1.,0.707106781186548,0.707106781186548,1.,1.,0.707106781186548,      125P    251
0.707106781186548,1.,1.,0.707106781186548,0.707106781186548,1.,      125P    252
1.,9.06221746070798,-35.8022888519431,0.,9.06221746070798,           125P    253
-35.8022888519431,1.,9.06221746070798,-39.7710388519431,0.,          125P    254
9.06221746070798,-39.7710388519431,1.,13.030967460708,               125P    255
-39.7710388519431,0.,13.030967460708,-39.7710388519431,1.,           125P    256
16.999717460708,-39.7710388519431,0.,16.999717460708,                125P    257
-39.7710388519431,1.,16.999717460708,-35.8022888519431,0.,           125P    258
16.999717460708,-35.8022888519431,1.,16.999717460708,                125P    259
-31.8335388519431,0.,16.999717460708,-31.8335388519431,1.,           125P    260
13.030967460708,-31.8335388519431,0.,13.030967460708,                125P    261
-31.8335388519431,1.,9.06221746070798,-31.8335388519431,0.,          125P    262
9.06221746070798,-31.8335388519431,1.,9.06221746070798,              125P    263
-35.8022888519431,0.,9.06221746070798,-35.8022888519431,1.,0.,       125P    264
0.251968503937008,-3.14159265358979,3.14159265358979;                125P    265
128,1,8,1,2,0,1,0,0,1,0.,0.,0.251968503937008,0.251968503937008,     127P    266
-3.14159265358979,-3.14159265358979,-3.14159265358979,               127P    267
-1.5707963267949,-1.5707963267949,0.,0.,1.5707963267949,             127P    268
1.5707963267949,3.14159265358979,3.14159265358979,                   127P    269
3.14159265358979,1.,1.,0.707106781186548,0.707106781186548,1.,       127P    270
1.,0.707106781186548,0.707106781186548,1.,1.,0.707106781186548,      127P    271
0.707106781186548,1.,1.,0.707106781186548,0.707106781186548,1.,      127P    272
1.,29.0268178841871,-19.05,0.,29.0268178841871,-19.05,1.,            127P    273
29.0268178841871,-23.01875,0.,29.0268178841871,-23.01875,1.,         127P    274
32.9955678841871,-23.01875,0.,32.9955678841871,-23.01875,1.,         127P    275
36.9643178841871,-23.01875,0.,36.9643178841871,-23.01875,1.,         127P    276
36.9643178841871,-19.05,0.,36.9643178841871,-19.05,1.,               127P    277
36.9643178841871,-15.08125,0.,36.9643178841871,-15.08125,1.,         127P    278
32.9955678841871,-15.08125,0.,32.9955678841871,-15.08125,1.,         127P    279
29.0268178841871,-15.08125,0.,29.0268178841871,-15.08125,1.,         127P    280
29.0268178841871,-19.05,0.,29.0268178841871,-19.05,1.,0.,            127P    281
0.251968503937008,-3.14159265358979,3.14159265358979;                127P    282
128,1,8,1,2,0,1,0,0,1,0.,0.,0.251968503937008,0.251968503937008,     129P    283
-3.14159265358979,-3.14159265358979,-3.14159265358979,               129P    284
-1.5707963267949,-1.5707963267949,0.,0.,1.5707963267949,             129P    285
1.5707963267949,3.14159265358979,3.14159265358979,                   129P    286
3.14159265358979,1.,1.,0.707106781186548,0.707106781186548,1.,       129P    287
1.,0.707106781186548,0.707106781186548,1.,1.,0.707106781186548,      129P    288
0.707106781186548,1.,1.,0.707106781186548,0.707106781186548,1.,      129P    289
1.,-36.9643178841871,-19.05,0.,-36.9643178841871,-19.05,1.,          129P    290
-36.9643178841871,-23.01875,0.,-36.9643178841871,-23.01875,1.,       129P    291
-32.9955678841871,-23.01875,0.,-32.9955678841871,-23.01875,1.,       129P    292
-29.0268178841871,-23.01875,0.,-29.0268178841871,-23.01875,1.,       129P    293
-29.0268178841871,-19.05,0.,-29.0268178841871,-19.05,1.,             129P    294
-29.0268178841871,-15.08125,0.,-29.0268178841871,-15.08125,1.,       129P    295
-32.9955678841871,-15.08125,0.,-32.9955678841871,-15.08125,1.,       129P    296
-36.9643178841871,-15.08125,0.,-36.9643178841871,-15.08125,1.,       129P    297
-36.9643178841871,-19.05,0.,-36.9643178841871,-19.05,1.,0.,          129P    298
0.251968503937008,-3.14159265358979,3.14159265358979;                129P    299
128,1,8,1,2,0,1,0,0,1,0.,0.,0.251968503937008,0.251968503937008,     131P    300
-3.14159265358979,-3.14159265358979,-3.14159265358979,               131P    301
-1.5707963267949,-1.5707963267949,0.,0.,1.5707963267949,             131P    302
1.5707963267949,3.14159265358979,3.14159265358979,                   131P    303
3.14159265358979,1.,1.,0.707106781186548,0.707106781186548,1.,       131P    304
1.,0.707106781186548,0.707106781186548,1.,1.,0.707106781186548,      131P    305
0.707106781186548,1.,1.,0.707106781186548,0.707106781186548,1.,      131P    306
1.,-41.4899253897651,6.61599556911005,0.,-41.4899253897651,          131P    307
6.61599556911005,1.,-41.4899253897651,2.64724556911005,0.,           131P    308
-41.4899253897651,2.64724556911005,1.,-37.5211753897651,             131P    309
2.64724556911005,0.,-37.5211753897651,2.64724556911005,1.,           131P    310
-33.5524253897651,2.64724556911005,0.,-33.5524253897651,             131P    311
2.64724556911005,1.,-33.5524253897651,6.61599556911005,0.,           131P    312
-33.5524253897651,6.61599556911005,1.,-33.5524253897651,             131P    313
10.5847455691101,0.,-33.5524253897651,10.5847455691101,1.,           131P    314
-37.5211753897651,10.5847455691101,0.,-37.5211753897651,             131P    315
10.5847455691101,1.,-41.4899253897651,10.5847455691101,0.,           131P    316
-41.4899253897651,10.5847455691101,1.,-41.4899253897651,             131P    317
6.61599556911005,0.,-41.4899253897651,6.61599556911005,1.,0.,        131P    318
0.251968503937008,-3.14159265358979,3.14159265358979;                131P    319
128,1,1,1,1,0,0,1,0,0,-0.001,-0.001,2.541,2.541,-0.001,-0.001,       133P    320
0.101,0.101,1.,1.,1.,1.,50.0380819305503,-8.82306390725675,          133P    321
-0.01,25.00426884898,-4.40892723096337,-0.01,50.0380819305503,       133P    322
-8.82306390725675,1.01,25.00426884898,-4.40892723096337,1.01,        133P    323
-0.001,2.541,-0.001,0.101;                                           133P    324
128,1,6,1,2,0,0,0,0,0,0.,0.,0.0196850393700787,                      135P    325
0.0196850393700787,2.61799387799149,2.61799387799149,                135P    326
2.61799387799149,3.78154671265438,3.78154671265438,                  135P    327
4.94509954731727,4.94509954731727,6.10865238198015,                  135P    328
6.10865238198015,6.10865238198015,1.,1.,0.835487811412937,           135P    329
0.835487811412937,1.,1.,0.835487811412937,0.835487811412937,1.,      135P    330
1.,0.835487811412937,0.835487811412937,1.,1.,-43.9940905122495,      135P    331
25.4,1.,-43.9940905122495,25.4,0.,-60.6999333172979,                 135P    332
-3.53536852160288,1.,-60.6999333172979,-3.53536852160288,0.,         135P    333
-40.7478581919562,-30.3356564585015,1.,-40.7478581919562,            135P    334
-30.3356564585015,0.,-20.7957830666146,-57.1359443954002,1.,         135P    335
-20.7957830666146,-57.1359443954002,0.,11.7152862337159,             135P    336
-49.4306794254551,1.,11.7152862337159,-49.4306794254551,0.,          135P    337
44.2263555340464,-41.7254144555099,1.,44.2263555340464,              135P    338
-41.7254144555099,0.,50.0282338530202,-8.82132742548015,1.,          135P    339
50.0282338530202,-8.82132742548015,0.,0.,0.0196850393700787,         135P    340
2.61799387799149,6.10865238198015;                                   135P    341
128,1,1,1,1,0,0,1,0,0,-0.001,-0.001,2.541,2.541,-0.001,-0.001,       137P    342
0.101,0.101,1.,1.,1.,1.,-21.9883850020869,12.695,-0.01,              137P    343
-44.0027507662873,25.405,-0.01,-21.9883850020869,12.695,1.01,        137P    344
-44.0027507662873,25.405,1.01,-0.001,2.541,-0.001,0.101;             137P    345
128,1,6,1,2,0,0,0,0,0,0.,0.,0.0393700787401575,                      139P    346
0.0393700787401575,2.61799387799149,2.61799387799149,                139P    347
2.61799387799149,3.78154671265438,3.78154671265438,                  139P    348
4.94509954731727,4.94509954731727,6.10865238198015,                  139P    349
6.10865238198015,6.10865238198015,1.,1.,0.835487811412937,           139P    350
0.835487811412937,1.,1.,0.835487811412937,0.835487811412937,1.,      139P    351
1.,0.835487811412937,0.835487811412937,1.,1.,-21.9970452561248,      139P    352
12.7,0.,-21.9970452561248,12.7,1.,-30.349966658649,                  139P    353
-1.76768426080144,0.,-30.349966658649,-1.76768426080144,1.,          139P    354
-20.3739290959781,-15.1678282292508,0.,-20.3739290959781,            139P    355
-15.1678282292508,1.,-10.3978915333073,-28.5679721977001,0.,         139P    356
-10.3978915333073,-28.5679721977001,1.,5.85764311685795,             139P    357
-24.7153397127275,0.,5.85764311685795,-24.7153397127275,1.,          139P    358
22.1131777670232,-20.862707227755,0.,22.1131777670232,               139P    359
-20.862707227755,1.,25.0141169265101,-4.41066371274008,0.,           139P    360
25.0141169265101,-4.41066371274008,1.,0.,0.0393700787401575,         139P    361
2.61799387799149,6.10865238198015;                                   139P    362
128,1,1,1,1,0,0,1,0,0,-6.07099333172979,-6.07099333172979,           141P    363
5.00382338530202,5.00382338530202,-5.71459443954002,                 141P    364
-5.71459443954002,2.541,2.541,1.,1.,1.,1.,-60.7099333172979,         141P    365
-57.1459443954002,1.,50.0382338530202,-57.1459443954002,1.,          141P    366
-60.7099333172979,25.41,1.,50.0382338530202,25.41,1.,                141P    367
-6.07099333172979,5.00382338530202,-5.71459443954002,2.541;          141P    368
128,1,1,1,1,0,0,1,0,0,-6.07099333172979,-6.07099333172979,           143P    369
5.00382338530202,5.00382338530202,-5.71459443954002,                 143P    370
-5.71459443954002,2.541,2.541,1.,1.,1.,1.,50.0382338530202,          143P    371
-57.1459443954002,0.,-60.7099333172979,-57.1459443954002,0.,         143P    372
50.0382338530202,25.41,0.,-60.7099333172979,25.41,0.,                143P    373
-6.07099333172979,5.00382338530202,-5.71459443954002,2.541;          143P    374
502,18,-16.999717460708,-35.8022888519431,1.,-16.999717460708,       145P    375
-35.8022888519431,0.,9.06221746070798,-35.8022888519431,1.,          145P    376
9.06221746070798,-35.8022888519431,0.,29.0268178841871,-19.05,       145P    377
1.,29.0268178841871,-19.05,0.,-36.9643178841871,-19.05,1.,           145P    378
-36.9643178841871,-19.05,0.,-41.4899253897651,6.61599556911005,      145P    379
1.,-41.4899253897651,6.61599556911005,0.,25.0141169265101,           145P    380
-4.41066371274004,0.,50.0282338530202,-8.82132742548009,0.,          145P    381
25.0141169265101,-4.41066371274004,1.,50.0282338530202,              145P    382
-8.82132742548009,1.,-43.9940905122495,25.4,0.,                      145P    383
-43.9940905122495,25.4,1.,-21.9970452561247,12.7,0.,                 145P    384
-21.9970452561247,12.7,1.;                                           145P    385
504,27,69,145,1,145,1,71,145,1,145,2,73,145,2,145,2,75,145,3,        147P    386
145,3,77,145,3,145,4,79,145,4,145,4,81,145,5,145,5,83,145,5,145,     147P    387
6,85,145,6,145,6,87,145,7,145,7,89,145,7,145,8,91,145,8,145,8,       147P    388
93,145,9,145,9,95,145,9,145,10,97,145,10,145,10,99,145,11,145,       147P    389
12,101,145,11,145,13,103,145,14,145,13,105,145,12,145,14,107,        147P    390
145,15,145,12,109,145,16,145,14,111,145,15,145,16,113,145,17,        147P    391
145,15,115,145,18,145,16,117,145,17,145,18,119,145,17,145,11,        147P    392
121,145,13,145,18;                                                   147P    393
406,1,26HSpacer 1in - 5 Holes - 1mm;                                 149P    394
314,62.7450980392157,62.7450980392157,62.7450980392157,13HSteel      151P    395
- Satin;                                                             151P    396
S      1G      3D    152P    396                                        T      1
